<?xml version="1.0" encoding="utf-8"?>
<!-- Generator: Adobe Illustrator 15.1.0, SVG Export Plug-In . SVG Version: 6.00 Build 0)  -->
<!DOCTYPE svg PUBLIC "-//W3C//DTD SVG 1.1//EN" "http://www.w3.org/Graphics/SVG/1.1/DTD/svg11.dtd">
<svg version="1.1" id="Layer_1" xmlns="http://www.w3.org/2000/svg" xmlns:xlink="http://www.w3.org/1999/xlink" x="0px" y="0px"
	 width="570px" height="126px" viewBox="0 0 570 126" enable-background="new 0 0 570 126" xml:space="preserve">
<g display="none">
	<path display="inline" fill="#B2B1B2" d="M1.835,62.364c0-33.438,27.107-60.545,60.545-60.545s60.546,27.107,60.546,60.545
		c0,33.438-27.108,60.545-60.546,60.545C28.943,122.91,1.835,95.802,1.835,62.364z M62.38,102.576
		c22.208,0,40.212-18.003,40.212-40.212c0-22.207-18.003-40.211-40.212-40.211c-22.207,0-40.211,18.003-40.211,40.211
		C22.169,84.572,40.173,102.576,62.38,102.576z M62.38,82.859c11.532,0,20.881-9.35,20.881-20.881
		c0-11.532-9.349-20.881-20.881-20.881c-11.531,0-20.88,9.349-20.88,20.881C41.5,73.51,50.848,82.859,62.38,82.859z"/>
</g>
<g display="none">
	<g display="inline">
		<polygon fill="#B2B1B2" points="142.588,18.908 211.577,18.908 211.577,36.316 187.85,36.316 187.85,106.079 166.766,106.079 
			166.766,36.446 142.588,36.446 		"/>
		<path fill="#B2B1B2" d="M276.023,18.908c0,0,15.861,0,40.942,0c23.275,0,26.499,15.926,26.499,25.21
			c0,13.476-11.606,20.246-12.637,20.503c0,0,10.187,3.804,10.187,15.345v16.248c0,6.513,3.998,8.318,4.707,9.865h-16.635
			c-7.93-0.903-7.801-7.222-7.736-10.832V81.256c-0.193-3.417-1.226-7.222-8.383-7.35h-16.826v32.174h-20.182L276.023,18.908z
			 M315.482,36.446h-19.342v17.408c0,0,15.086,0.048,17.344,0c6.061-0.128,10.752-2.837,10.752-8.768
			C324.236,38.625,320.253,36.446,315.482,36.446z"/>
		<polygon fill="#B2B1B2" points="432.441,18.908 432.441,106.079 495.24,106.079 495.24,88.154 452.945,88.154 452.945,68.684 
			489.051,68.684 489.051,52.177 452.945,52.177 452.945,36.446 495.24,36.446 495.24,18.908 		"/>
		<polygon fill="#B2B1B2" points="498.206,36.446 523.094,36.446 523.094,106.079 543.727,106.079 543.727,36.446 569,36.446 
			569,18.908 498.206,18.908 		"/>
		<path fill="#B2B1B2" d="M221.683,18.892h22.373l30.485,87.187h-21.683l-6.3-18.118h-25.726l-5.941,18.118h-21.5L221.683,18.892z
			 M233.37,49.663l-7.415,22.502h15.281L233.37,49.663z"/>
		<path fill="#B2B1B2" d="M425.219,57.4h-37.46v16.958h17.796c-0.029,3.488,0.519,6.971-3.667,11.871
			c-1.422,1.666-6.298,5.407-13.098,5.407c-5.737,0-9.86-1.64-13.442-4.681c-7.908-6.714-9.77-19.26-9.77-25.817
			c0-8.253,3.289-28.756,23.469-29.594c0,0,13.609-0.879,17.151,15.538h18.891c-0.387-8.317-10.058-31.683-36.042-31.722
			c-8.969-0.012-20.354,2.688-29.779,12.131c-6.82,6.832-12.968,18.312-12.968,34.485c0,17.545,6.462,28.948,12.367,35.215
			c10.368,11.002,20.812,11.852,26.253,11.852c4.321,0,12.574-0.645,23.277-7.866l2.836,4.9h14.185L425.219,57.4L425.219,57.4z"/>
	</g>
	<g display="inline">
		<path fill="#B2B1B2" d="M554.278,103.541h-1.227v-7.462h2.829c1.803,0,2.723,0.631,2.723,2.146c0,1.352-0.829,1.91-1.946,2.036
			l2.091,3.281h-1.388l-1.929-3.19h-1.153V103.541z M555.646,99.305c0.92,0,1.73-0.09,1.73-1.171c0-0.901-0.883-1.01-1.622-1.01
			h-1.477v2.181H555.646z M555.612,106.424c-3.876,0-6.632-2.902-6.632-6.74c0-4.057,3.063-6.742,6.632-6.742
			c3.531,0,6.596,2.686,6.596,6.742C562.208,103.739,559.144,106.424,555.612,106.424z M555.612,94.114
			c-2.92,0-5.191,2.288-5.191,5.569c0,3.063,1.982,5.568,5.191,5.568c2.884,0,5.153-2.271,5.153-5.568
			C560.766,96.402,558.496,94.114,555.612,94.114z"/>
	</g>
</g>
<g>
	<path fill="#B2B1B2" d="M37.845,75.232h-0.64c-0.819,0.029-1.75,0.047-2.787,0.05L21.72,45.422c-0.19-0.359-0.584-0.787-1.38-0.787
		c-0.915,0-1.296,0.45-1.452,0.818L5.697,75.281H5.665c-1.124,0-2.063-0.018-2.833-0.049H2.323C1.495,75.232,1,75.736,1,76.582
		c0,0.814,0.494,1.301,1.323,1.301c0.087,0,0.259-0.017,0.527-0.054c0.394-0.062,0.883-0.109,1.454-0.141
		c0.579-0.031,1.533-0.048,2.835-0.048h0.284c1.301,0,2.245,0.017,2.805,0.048c0.554,0.031,1.034,0.079,1.436,0.142
		c0.259,0.036,0.431,0.053,0.518,0.053c0.828,0,1.323-0.486,1.323-1.301c0-0.846-0.494-1.35-1.323-1.35h-0.53
		c-0.714,0.029-1.599,0.047-2.653,0.049l3.264-7.387h13.258l3.113,7.385c-0.854-0.006-1.653-0.021-2.403-0.047h-0.624
		c-0.828,0-1.323,0.504-1.323,1.35c0,0.814,0.494,1.301,1.323,1.301c0.128,0,0.319-0.018,0.542-0.048l1.869-0.123
		c0.736-0.048,1.87-0.071,3.369-0.071h0.68c1.498,0,2.631,0.023,3.368,0.071l1.835,0.118c0.255,0.035,0.447,0.053,0.574,0.053
		c0.828,0,1.323-0.486,1.323-1.301C39.167,75.737,38.672,75.232,37.845,75.232z M24.385,65.195H13.47l5.558-12.701L24.385,65.195z"
		/>
	<path fill="#B2B1B2" d="M82.488,45.366c-0.129,0-0.32,0.018-0.541,0.05c-0.489,0.032-1.035,0.065-1.638,0.098
		c-0.602,0.033-1.522,0.064-2.75,0.097c-1.107,0-1.981-0.023-2.597-0.071c-0.626-0.05-1.205-0.091-1.708-0.12
		c-0.292-0.036-0.499-0.053-0.624-0.053c-0.305,0-0.6,0.121-0.874,0.358c-0.293,0.252-0.449,0.577-0.449,0.942
		c0,0.846,0.495,1.351,1.323,1.351h0.64c0.818-0.028,1.75-0.044,2.797-0.048v20.24L60.977,47.477l-0.144-0.16
		c-0.525-0.729-0.891-1.173-1.151-1.397c-0.314-0.271-0.723-0.408-1.215-0.408c-0.157,0-0.47,0.017-0.929,0.05
		c-0.668,0.031-1.113,0.048-1.337,0.048c-1.145,0-2.048-0.023-2.684-0.072l-1.612-0.118c-0.256-0.036-0.449-0.054-0.577-0.054
		c-0.828,0-1.323,0.486-1.323,1.301c0,0.846,0.495,1.351,1.323,1.351h0.64c0.813-0.027,1.727-0.044,2.74-0.048v27.312
		c-1.013-0.004-1.929-0.021-2.756-0.049h-0.624c-0.828,0-1.323,0.504-1.323,1.35c0,0.814,0.495,1.301,1.323,1.301
		c0.128,0,0.319-0.018,0.544-0.048c0.454-0.033,0.984-0.074,1.591-0.124c0.584-0.047,1.505-0.07,2.737-0.07
		c1.158,0,2.071,0.023,2.713,0.071l1.642,0.118c0.255,0.035,0.448,0.053,0.575,0.053c0.828,0,1.323-0.486,1.323-1.301
		c0-0.846-0.494-1.35-1.323-1.35h-0.64c-0.814,0.027-1.728,0.045-2.74,0.049V51.878l18.35,25.323l0.082,0.086
		c0.504,0.729,1.029,1.084,1.604,1.084c0.473,0,1.266-0.238,1.266-1.838V47.97c1.051,0.003,2.004,0.02,2.869,0.048h0.567
		c0.828,0,1.323-0.505,1.323-1.351c0-0.354-0.138-0.675-0.401-0.926C83.153,45.495,82.834,45.366,82.488,45.366z"/>
	<path fill="#B2B1B2" d="M126.697,49.805c-0.038-0.607-0.056-1.165-0.056-1.676v-1.463c0-0.846-0.494-1.35-1.323-1.35
		c-0.118,0-0.53,0.033-1.222,0.098c-1.188,0.08-1.717,0.097-1.957,0.097l-8.833,0.098l-11.048-0.098
		c-0.209,0-0.708-0.017-1.875-0.095c-0.643-0.068-1.037-0.1-1.241-0.1c-0.828,0-1.323,0.504-1.323,1.35v1.462
		c0,0.516-0.02,1.207-0.056,2.075c-0.038,0.869-0.094,1.707-0.17,2.531c-0.039,0.793-0.058,1.223-0.058,1.29
		c0,0.753,0.496,1.203,1.323,1.203c1.332,0,1.436-0.921,1.436-1.203c0-1.905,0.361-3.368,1.072-4.353
		c0.686-0.95,1.718-1.412,3.157-1.412h4.966v27.021c-1.012-0.004-1.928-0.021-2.756-0.049h-0.623c-0.828,0-1.323,0.504-1.323,1.35
		c0,0.814,0.495,1.301,1.323,1.301c0.128,0,0.319-0.018,0.542-0.048l1.869-0.123c0.736-0.048,1.87-0.071,3.369-0.071h0.68
		c1.498,0,2.632,0.023,3.369,0.071l1.834,0.118c0.257,0.035,0.448,0.053,0.575,0.053c0.828,0,1.323-0.486,1.323-1.301
		c0-0.846-0.494-1.35-1.323-1.35h-0.583c-0.852,0.027-1.803,0.045-2.854,0.049V48.261h5.022c1.438,0,2.471,0.462,3.157,1.412
		c0.71,0.985,1.072,2.45,1.072,4.353c0,0.753,0.516,1.203,1.379,1.203c0.864,0,1.38-0.45,1.38-1.203c0-0.066-0.02-0.496-0.058-1.293
		L126.697,49.805z"/>
	<path fill="#B2B1B2" d="M173.756,48.018h0.567c0.828,0,1.323-0.505,1.323-1.351c0-0.354-0.138-0.675-0.401-0.926
		c-0.256-0.246-0.576-0.375-0.923-0.375c-0.128,0-0.321,0.018-0.541,0.05l-1.869,0.122c-0.752,0.048-1.886,0.072-3.369,0.072h-0.68
		c-1.484,0-2.618-0.023-3.369-0.072l-1.833-0.118c-0.256-0.036-0.449-0.054-0.577-0.054c-0.828,0-1.322,0.486-1.322,1.301
		c0,0.846,0.494,1.351,1.322,1.351h0.64c0.814-0.027,1.728-0.044,2.74-0.048v11.623h-14.124V47.97
		c1.012,0.003,1.927,0.02,2.756,0.048h0.623c0.828,0,1.323-0.505,1.323-1.351c0-0.354-0.138-0.675-0.401-0.926
		c-0.256-0.246-0.575-0.375-0.922-0.375c-0.127,0-0.32,0.018-0.541,0.05l-1.869,0.122c-0.752,0.048-1.886,0.072-3.37,0.072h-0.68
		c-1.485,0-2.619-0.023-3.369-0.072l-1.834-0.118c-0.256-0.036-0.448-0.054-0.576-0.054c-0.305,0-0.599,0.121-0.875,0.358
		c-0.293,0.251-0.448,0.577-0.448,0.942c0,0.846,0.495,1.351,1.323,1.351h0.64c0.813-0.027,1.727-0.044,2.74-0.048v27.312
		c-1.013-0.004-1.928-0.021-2.756-0.049h-0.624c-0.828,0-1.323,0.504-1.323,1.35c0,0.814,0.495,1.301,1.323,1.301
		c0.128,0,0.319-0.018,0.542-0.048l1.869-0.123c0.736-0.048,1.869-0.071,3.369-0.071h0.68c1.498,0,2.632,0.023,3.37,0.071
		l1.834,0.118c0.256,0.035,0.448,0.053,0.575,0.053c0.828,0,1.323-0.486,1.323-1.301c0-0.846-0.494-1.35-1.323-1.35h-0.639
		c-0.815,0.027-1.728,0.045-2.74,0.049V62.292h14.124v12.989c-1.013-0.004-1.928-0.02-2.756-0.049h-0.622
		c-0.828,0-1.323,0.505-1.323,1.351c0,0.814,0.494,1.302,1.323,1.302c0.128,0,0.319-0.019,0.542-0.05l1.868-0.122
		c0.737-0.048,1.871-0.072,3.369-0.072h0.68c1.498,0,2.631,0.024,3.37,0.072l1.834,0.118c0.255,0.035,0.447,0.054,0.574,0.054
		c0.828,0,1.323-0.487,1.323-1.302c0-0.846-0.495-1.351-1.323-1.351h-0.582c-0.852,0.029-1.802,0.045-2.854,0.049V47.97
		C171.939,47.973,172.891,47.989,173.756,48.018z"/>
	<path fill="#B2B1B2" d="M221.798,73.674c-0.864,0-1.38,0.486-1.38,1.301c0,0.488-0.162,0.939-1.34,0.939
		c-0.305,0-0.943,0-0.943-1.426c0-0.352,0.038-0.943,0.112-1.77c0.114-1.566,0.171-2.873,0.171-3.883
		c0-1.859-0.751-3.707-2.234-5.492c-1.109-1.335-2.512-2.303-4.187-2.89c0.283-0.103,0.566-0.218,0.848-0.349
		c0.889-0.407,1.709-0.94,2.438-1.585c0.739-0.651,1.337-1.41,1.778-2.255c0.45-0.86,0.677-1.794,0.677-2.777
		c0-2.401-1.121-4.354-3.33-5.804c-2.146-1.409-5.282-2.125-9.324-2.125h-3.069c-1.544,0.033-2.522,0.05-2.937,0.05
		c-1.485,0-2.618-0.024-3.369-0.072l-1.832-0.117c-0.257-0.036-0.449-0.054-0.576-0.054c-0.305,0-0.6,0.121-0.875,0.358
		c-0.293,0.251-0.449,0.577-0.449,0.942c0,0.846,0.495,1.351,1.323,1.351h0.639c0.814-0.027,1.727-0.044,2.74-0.048v27.312
		c-1.012-0.004-1.928-0.021-2.756-0.049h-0.623c-0.828,0-1.323,0.504-1.323,1.35c0,0.814,0.495,1.301,1.323,1.301
		c0.127,0,0.319-0.018,0.541-0.048l1.869-0.123c0.736-0.048,1.87-0.071,3.369-0.071h0.68c1.498,0,2.631,0.023,3.369,0.071
		l1.834,0.118c0.256,0.035,0.448,0.053,0.575,0.053c0.828,0,1.323-0.486,1.323-1.301c0-0.846-0.494-1.35-1.323-1.35h-0.64
		c-0.814,0.027-1.728,0.045-2.74,0.049V62.292h4.059c2.45,0,4.16,0.543,5.08,1.614c0.938,1.092,1.416,2.75,1.416,4.93
		c0,3.306,0.45,5.628,1.376,7.098c0.957,1.521,2.635,2.292,4.989,2.292c1.082,0,2.034-0.303,2.833-0.897
		c0.84-0.63,1.266-1.438,1.266-2.402c0-0.23-0.078-0.572-0.449-0.895C222.451,73.794,222.139,73.674,221.798,73.674z M211.75,53.489
		c0,1.938-0.543,3.454-1.615,4.51c-1.074,1.058-2.773,1.594-5.05,1.594h-2.926V48.261h2.926c2.63,0,4.424,0.389,5.332,1.155
		C211.302,50.164,211.75,51.534,211.75,53.489z"/>
	<path fill="#B2B1B2" d="M263.266,49.404c-1.475-1.5-3.205-2.666-5.143-3.466c-3.872-1.599-8.388-1.597-12.259,0
		c-1.938,0.8-3.668,1.966-5.143,3.466c-1.473,1.5-2.632,3.316-3.446,5.398c-0.811,2.075-1.223,4.371-1.223,6.822
		c0,2.454,0.412,4.749,1.223,6.823c0.813,2.082,1.973,3.898,3.446,5.397c1.473,1.501,3.203,2.675,5.14,3.491
		c1.938,0.816,4.001,1.23,6.132,1.23c2.168,0,4.242-0.414,6.163-1.232c1.917-0.815,3.636-1.99,5.109-3.489
		c1.474-1.503,2.633-3.318,3.445-5.397c0.811-2.074,1.222-4.371,1.222-6.823c0-2.45-0.412-4.747-1.222-6.822
		C265.9,52.723,264.741,50.907,263.266,49.404z M261.776,61.625c0,5.197-0.806,8.886-2.396,10.969
		c-1.56,2.041-4.045,3.077-7.385,3.077c-3.342,0-5.827-1.036-7.386-3.077c-1.589-2.081-2.396-5.771-2.396-10.969
		c0-5.196,0.806-8.886,2.396-10.967c1.56-2.043,4.044-3.079,7.386-3.079c3.34,0,5.825,1.036,7.385,3.079
		C260.97,52.739,261.776,56.429,261.776,61.625z"/>
	<path fill="#B2B1B2" d="M307.345,48.067c-2.265-1.695-5.504-2.555-9.631-2.555c-1.174,0-2.575,0.017-4.215,0.05
		c-0.71,0.031-1.457,0.048-2.245,0.048c-1.483,0-2.617-0.023-3.367-0.072l-1.835-0.118c-0.256-0.036-0.448-0.054-0.576-0.054
		c-0.305,0-0.6,0.121-0.875,0.358c-0.293,0.252-0.449,0.577-0.449,0.942c0,0.846,0.496,1.351,1.323,1.351h0.64
		c0.812-0.027,1.727-0.044,2.74-0.048v27.311c-1.013-0.004-1.93-0.02-2.758-0.049h-0.623c-0.828,0-1.323,0.505-1.323,1.351
		c0,0.814,0.496,1.302,1.323,1.302c0.127,0,0.319-0.019,0.542-0.05l1.868-0.122c0.736-0.048,1.87-0.072,3.369-0.072h0.681
		c1.496,0,2.631,0.024,3.369,0.072l1.834,0.118c0.256,0.035,0.447,0.054,0.575,0.054c0.828,0,1.323-0.487,1.323-1.302
		c0-0.846-0.494-1.351-1.323-1.351h-0.64c-0.814,0.027-1.728,0.045-2.74,0.049V64.729h3.38c4.128,0,7.368-0.868,9.634-2.583
		c2.305-1.743,3.473-4.114,3.473-7.05S309.651,49.794,307.345,48.067z M303.336,60.529c-1.036,0.995-2.927,1.499-5.621,1.499h-3.38
		V48.261h3.38c2.694,0,4.587,0.497,5.623,1.478c1.029,0.974,1.552,2.777,1.552,5.357C304.889,57.711,304.366,59.54,303.336,60.529z"
		/>
	<path fill="#B2B1B2" d="M352.836,49.404c-1.476-1.5-3.205-2.666-5.144-3.466c-3.871-1.599-8.389-1.597-12.259,0
		c-1.938,0.8-3.668,1.966-5.142,3.466c-1.473,1.5-2.634,3.316-3.447,5.398c-0.811,2.075-1.222,4.371-1.222,6.822
		c0,2.454,0.411,4.749,1.222,6.823c0.813,2.082,1.974,3.898,3.447,5.397c1.473,1.501,3.202,2.675,5.139,3.491
		c1.939,0.816,4.002,1.23,6.132,1.23c2.17,0,4.242-0.414,6.163-1.232c1.917-0.815,3.637-1.99,5.11-3.489
		c1.473-1.503,2.633-3.318,3.444-5.397c0.811-2.074,1.222-4.371,1.222-6.823c0-2.45-0.411-4.747-1.222-6.822
		C355.469,52.723,354.309,50.907,352.836,49.404z M351.345,61.625c0,5.197-0.806,8.886-2.396,10.969
		c-1.56,2.041-4.045,3.077-7.385,3.077c-3.343,0-5.826-1.036-7.387-3.077c-1.589-2.081-2.395-5.771-2.395-10.969
		c0-5.196,0.806-8.886,2.395-10.967c1.561-2.043,4.044-3.079,7.387-3.079c3.34,0,5.824,1.036,7.385,3.079
		C350.539,52.739,351.345,56.429,351.345,61.625z"/>
	<path fill="#B2B1B2" d="M399.237,68.021c-1.334,0-1.437,0.922-1.437,1.203c0,1.904-0.352,3.371-1.047,4.355
		c-0.668,0.948-1.69,1.408-3.126,1.408h-9.725V47.97c1.013,0.003,1.928,0.02,2.756,0.048h0.624c0.828,0,1.323-0.505,1.323-1.351
		c0-0.354-0.139-0.675-0.402-0.926c-0.256-0.246-0.574-0.375-0.921-0.375c-0.128,0-0.319,0.018-0.542,0.05l-1.868,0.122
		c-0.752,0.048-1.886,0.072-3.369,0.072h-0.681c-1.484,0-2.617-0.023-3.368-0.072l-1.834-0.118
		c-0.256-0.036-0.448-0.054-0.575-0.054c-0.306,0-0.6,0.121-0.876,0.358c-0.293,0.251-0.448,0.577-0.448,0.942
		c0,0.846,0.494,1.351,1.323,1.351h0.639c0.814-0.027,1.728-0.044,2.74-0.048v27.312c-1.012-0.004-1.928-0.021-2.756-0.049h-0.623
		c-0.829,0-1.323,0.504-1.323,1.35c0,0.814,0.494,1.301,1.323,1.301c0.127,0,0.318-0.018,0.54-0.048l1.869-0.123
		c0.736-0.048,1.869-0.071,3.368-0.071c0.643,0,2.169,0.017,4.587,0.048c4.684,0.033,8.161,0.049,10.428,0.049
		c0.433,0,1.141,0.048,2.124,0.146c0.544,0.033,0.894,0.05,1.049,0.05c0.345,0,0.663-0.13,0.922-0.375
		c0.263-0.252,0.401-0.571,0.401-0.926v-1.513c0-0.514,0.02-1.204,0.057-2.072c0.037-0.872,0.093-1.715,0.17-2.532
		c0.038-0.795,0.057-1.224,0.057-1.289C400.616,68.472,400.101,68.021,399.237,68.021z"/>
	<path fill="#B2B1B2" d="M441.442,49.404c-1.476-1.5-3.204-2.666-5.144-3.466c-3.872-1.599-8.388-1.597-12.259,0
		c-1.938,0.8-3.668,1.966-5.142,3.466c-1.472,1.5-2.633,3.316-3.446,5.398c-0.811,2.075-1.222,4.371-1.222,6.822
		c0,2.454,0.411,4.749,1.222,6.823c0.812,2.082,1.974,3.898,3.446,5.397c1.473,1.501,3.202,2.675,5.14,3.491
		c1.939,0.816,4.001,1.23,6.132,1.23c2.169,0,4.242-0.414,6.163-1.232c1.917-0.815,3.636-1.99,5.109-3.489
		c1.474-1.503,2.634-3.318,3.444-5.397c0.812-2.074,1.223-4.371,1.223-6.823c0-2.45-0.411-4.747-1.223-6.822
		C444.076,52.723,442.916,50.907,441.442,49.404z M439.951,61.625c0,5.197-0.806,8.886-2.396,10.969
		c-1.559,2.041-4.044,3.077-7.385,3.077c-3.342,0-5.826-1.036-7.386-3.077c-1.59-2.081-2.396-5.771-2.396-10.969
		c0-5.196,0.806-8.886,2.396-10.967c1.56-2.043,4.044-3.079,7.386-3.079c3.341,0,5.825,1.036,7.385,3.079
		C439.146,52.739,439.951,56.429,439.951,61.625z"/>
	<path fill="#B2B1B2" d="M494.982,64.514c-0.128,0-0.319,0.018-0.542,0.049l-1.869,0.123c-0.737,0.047-1.852,0.07-3.312,0.07h-0.736
		c-1.461,0-2.575-0.023-3.312-0.07l-1.834-0.119c-0.256-0.035-0.448-0.053-0.575-0.053c-0.827,0-1.323,0.504-1.323,1.35
		c0,0.814,0.495,1.301,1.323,1.301h0.64c0.814-0.027,1.728-0.045,2.74-0.048v0.21c0,1.056-0.137,2.085-0.408,3.062
		c-0.264,0.959-0.713,1.846-1.333,2.637c-0.61,0.782-1.44,1.426-2.464,1.912c-1.024,0.486-2.31,0.733-3.819,0.733
		c-1.597,0-3.016-0.244-4.217-0.724c-1.18-0.468-2.169-1.211-2.946-2.215c-1.737-2.209-2.618-5.947-2.618-11.109
		c0-5.161,0.881-8.897,2.622-11.11c0.772-0.999,1.763-1.744,2.943-2.214c1.205-0.479,2.624-0.722,4.217-0.722
		c1.298,0,2.559,0.22,3.747,0.653c1.187,0.435,2.265,1.053,3.199,1.841c0.927,0.782,1.67,1.723,2.205,2.797
		c0.531,1.066,0.801,2.226,0.801,3.444c0,0.334,0.091,0.619,0.27,0.85c0.207,0.267,0.562,0.402,1.053,0.402
		c0.439,0,0.776-0.125,1.003-0.375c0.21-0.232,0.32-0.536,0.32-0.878V46.18c0-0.334-0.092-0.619-0.27-0.85
		c-0.21-0.271-0.574-0.403-1.11-0.403c-0.577,0-0.868,0.243-1.012,0.448c-0.169,0.242-0.255,0.531-0.255,0.854
		c0,0.414-0.107,0.843-0.32,1.278c-0.137,0.282-0.283,0.52-0.436,0.711c-1.26-1.003-2.62-1.825-4.048-2.446
		c-1.582-0.69-3.466-1.039-5.6-1.039c-2.096,0-4.103,0.407-5.966,1.208c-1.864,0.801-3.536,1.969-4.971,3.469
		c-1.436,1.501-2.565,3.317-3.357,5.396c-0.791,2.074-1.192,4.368-1.192,6.819c0,2.452,0.401,4.747,1.192,6.819
		c0.791,2.08,1.911,3.894,3.328,5.395c1.415,1.502,3.089,2.678,4.971,3.496c1.884,0.816,3.901,1.232,5.995,1.232
		c3.978,0,7.314-1.017,9.919-3.021c2.642-2.035,3.981-4.865,3.981-8.414v-0.015c1.013,0.003,1.927,0.021,2.756,0.048h0.624
		c0.828,0,1.322-0.486,1.322-1.301C496.304,65.019,495.811,64.514,494.982,64.514z"/>
	<path fill="#B2B1B2" d="M522.289,48.018h0.623c0.827,0,1.323-0.505,1.323-1.351c0-0.354-0.139-0.675-0.401-0.926
		c-0.257-0.246-0.576-0.375-0.922-0.375c-0.128,0-0.32,0.018-0.541,0.05l-1.868,0.122c-0.752,0.048-1.886,0.072-3.369,0.072h-0.681
		c-1.484,0-2.618-0.023-3.368-0.072l-1.833-0.118c-0.257-0.036-0.449-0.054-0.577-0.054c-0.305,0-0.599,0.121-0.875,0.358
		c-0.294,0.251-0.449,0.577-0.449,0.942c0,0.846,0.495,1.351,1.323,1.351h0.64c0.814-0.027,1.727-0.044,2.74-0.048v27.312
		c-1.013-0.004-1.928-0.021-2.756-0.049h-0.624c-0.828,0-1.323,0.504-1.323,1.35c0,0.814,0.495,1.301,1.323,1.301
		c0.128,0,0.319-0.018,0.542-0.048l1.868-0.123c0.736-0.048,1.87-0.071,3.369-0.071h0.68c1.498,0,2.632,0.023,3.369,0.071
		l1.835,0.118c0.256,0.035,0.447,0.053,0.575,0.053c0.827,0,1.323-0.486,1.323-1.301c0-0.846-0.495-1.35-1.323-1.35h-0.64
		c-0.815,0.027-1.729,0.045-2.74,0.049V47.97C520.544,47.973,521.459,47.99,522.289,48.018z"/>
	<path fill="#B2B1B2" d="M566.535,68.021c-1.333,0-1.437,0.922-1.437,1.203c0,1.904-0.353,3.371-1.046,4.355
		c-0.668,0.948-1.691,1.408-3.127,1.408h-10.178V62.292h5.079c1.086,0,2.529,0.34,2.529,3.279c0,0.754,0.473,1.204,1.266,1.204
		c0.759,0,1.21-0.45,1.21-1.204l-0.001-0.521c-0.074-1.049-0.112-2.431-0.112-4.108s0.038-3.058,0.113-4.142v-0.487
		c0-0.754-0.451-1.204-1.21-1.204c-0.793,0-1.266,0.45-1.266,1.204c0,2.938-1.443,3.278-2.529,3.278h-5.079V48.261h8.762
		c1.437,0,2.458,0.46,3.126,1.407c0.694,0.986,1.046,2.451,1.046,4.356c0,0.282,0.104,1.203,1.438,1.203
		c0.863,0,1.379-0.45,1.379-1.203c0-0.066-0.02-0.496-0.058-1.293l-0.17-2.926c-0.038-0.606-0.056-1.165-0.056-1.676v-1.462
		c0-0.846-0.494-1.35-1.323-1.35c-0.118,0-0.529,0.033-1.222,0.098c-1.188,0.08-1.716,0.097-1.954,0.097l-5.892,0.049
		c-4.721,0.032-7.439,0.049-8.155,0.049c-1.484,0-2.618-0.023-3.368-0.072l-1.834-0.118c-0.256-0.036-0.448-0.054-0.576-0.054
		c-0.305,0-0.599,0.121-0.876,0.358c-0.293,0.251-0.447,0.577-0.447,0.942c0,0.846,0.495,1.351,1.322,1.351h0.64
		c0.814-0.027,1.728-0.044,2.74-0.048v27.312c-1.012-0.004-1.928-0.021-2.756-0.049h-0.624c-0.827,0-1.322,0.504-1.322,1.35
		c0,0.814,0.495,1.301,1.322,1.301c0.128,0,0.319-0.018,0.541-0.048l1.869-0.123c0.736-0.048,1.869-0.071,3.368-0.071
		c0.716,0,3.304,0.017,7.758,0.048c4.422,0.033,6.99,0.049,7.708,0.049c0.333,0,0.989,0.032,1.938,0.098
		c0.706,0.065,1.117,0.098,1.235,0.098c0.346,0,0.664-0.13,0.922-0.375c0.263-0.252,0.4-0.571,0.4-0.926v-1.513
		c0-0.514,0.02-1.204,0.057-2.072c0.038-0.872,0.094-1.715,0.17-2.532c0.038-0.795,0.059-1.224,0.059-1.289
		C567.915,68.472,567.399,68.021,566.535,68.021z"/>
</g>
</svg>
