<?xml version="1.0" encoding="utf-8"?>
<!-- Generator: Adobe Illustrator 17.0.0, SVG Export Plug-In . SVG Version: 6.00 Build 0)  -->
<!DOCTYPE svg PUBLIC "-//W3C//DTD SVG 1.1//EN" "http://www.w3.org/Graphics/SVG/1.1/DTD/svg11.dtd">
<svg version="1.1" id="Layer_1" xmlns="http://www.w3.org/2000/svg" xmlns:xlink="http://www.w3.org/1999/xlink" x="0px" y="0px"
	 width="878.956px" height="212.989px" viewBox="0 0 878.956 212.989" enable-background="new 0 0 878.956 212.989"
	 xml:space="preserve">
<g>
	<g>
		<g>
			<g>
				<path fill="#E9EFD7" d="M846.697,185.424c-58.463-8.993-117.118-16.121-176.033-21.392c2.443-28.093,4.885-56.186,7.328-84.279
					c60.837,5.443,121.406,12.804,181.776,22.09c-11.758,13.325-23.416,26.731-34.979,40.225
					C832.22,156.455,839.523,170.908,846.697,185.424z"/>
				<path fill="#FFFFFF" d="M851.29,188.796c-60.923-9.487-122.054-16.945-183.471-22.383c2.564-29.834,5.127-59.668,7.691-89.502
					c63.428,5.607,126.566,13.306,189.482,23.104c-12.451,14.048-24.79,28.186-37.023,42.424
					C835.858,157.836,843.63,173.285,851.29,188.796z M673.514,161.654c56.411,5.107,112.58,11.906,168.58,20.406
					c-6.748-13.496-13.575-26.946-20.485-40.359c10.869-12.77,21.851-25.443,32.943-38.02
					c-57.825-8.793-115.832-15.819-174.084-21.084C678.15,108.949,675.832,135.302,673.514,161.654z"/>
			</g>
			<g>
				<path fill="#E9EFD7" d="M32.267,101.843c60.37-9.287,120.938-16.648,181.776-22.091c2.443,28.093,4.885,56.186,7.328,84.279
					c-58.915,5.271-117.57,12.399-176.033,21.392c6.928-16.282,13.972-32.509,21.132-48.691
					C55.174,125.001,43.772,113.37,32.267,101.843z"/>
				<path fill="#FFFFFF" d="M224.215,166.413c-61.303,5.428-122.32,12.869-183.131,22.33c7.28-17.209,14.687-34.358,22.226-51.456
					c-12.113-12.499-24.317-24.901-36.617-37.216c63.032-9.825,126.286-17.543,189.832-23.16
					C219.088,106.745,221.652,136.579,224.215,166.413z M49.602,182.113c56.112-8.524,112.394-15.341,168.919-20.459
					c-2.318-26.353-4.637-52.705-6.955-79.058C153.431,87.85,95.541,94.858,37.833,103.627
					c10.667,10.788,21.264,21.638,31.797,32.556C62.822,151.435,56.145,166.745,49.602,182.113z"/>
			</g>
			<g>
				<path fill="#E9EFD7" d="M780.398,143.676c-218.866-27.521-439.735-27.948-658.705-1.272
					c-3.981-31.981-7.963-63.963-11.944-95.944c227.017-27.677,456.055-27.234,682.964,1.319
					C788.608,79.745,784.503,111.711,780.398,143.676z"/>
				<path fill="#FFFFFF" d="M782.706,146.613c-220.383-27.944-442.842-28.375-663.332-1.281
					c-4.231-33.709-8.462-67.418-12.694-101.126c229.041-28.165,460.179-27.718,689.109,1.331
					C791.428,79.229,787.067,112.921,782.706,146.613z M124.018,139.479c217.438-26.271,436.731-25.846,654.067,1.263
					c3.852-30.239,7.704-60.478,11.556-90.717c-224.882-28.071-451.839-28.51-676.828-1.307
					C116.547,78.971,120.283,109.225,124.018,139.479z"/>
			</g>
		</g>
		<g>
			<path fill="#62676C" d="M233.687,67.803c3.971-0.315,5.957-0.468,9.929-0.768c4.147-0.313,7.044,0.312,8.685,1.862
				c1.639,1.55,2.537,3.439,2.696,5.665c0.101,1.411-0.09,2.623-0.572,3.634c-0.482,1.011-2.448,3.144-2.448,3.144
				c0.077,0.297,4.137,1.646,5.216,3.098c1.078,1.452,1.678,3.045,1.8,4.775c0.212,3.011-0.686,5.43-2.686,7.262
				c-1.999,1.831-4.917,2.886-8.76,3.174c-4.508,0.338-6.761,0.512-11.268,0.869C235.415,89.612,234.551,78.707,233.687,67.803z
				 M241.452,72.713c0.22,2.871,0.329,4.306,0.549,7.177c0.669-0.051,1.003-0.077,1.672-0.127c1.234-0.094,2.244-0.551,3.028-1.372
				c0.784-0.821,1.135-1.79,1.052-2.907c-0.067-0.9-0.536-1.632-1.407-2.196c-0.872-0.564-1.927-0.799-3.165-0.705
				C242.489,72.634,242.143,72.661,241.452,72.713z M242.426,85.448c0.276,3.608,0.414,5.413,0.69,9.021
				c1.042-0.08,1.563-0.119,2.605-0.198c3.984-0.301,5.873-1.861,5.666-4.693c-0.112-1.533-0.686-2.676-1.72-3.43
				c-1.035-0.753-2.458-1.062-4.268-0.926C244.21,85.312,243.615,85.357,242.426,85.448z"/>
			<path fill="#62676C" d="M267.173,65.36c4.493-0.3,6.74-0.445,11.234-0.725c3.415-0.213,6.169,0.489,8.255,2.1
				c2.086,1.611,3.213,3.89,3.384,6.833c0.098,1.679-0.254,3.452-1.053,5.317c-0.799,1.866-2.383,3.385-4.749,4.563
				c4.123,5.232,6.174,7.852,10.259,13.1c-3.339,0.191-5.008,0.289-8.346,0.49c-3.793-4.859-5.698-7.285-9.525-12.131
				c-0.33,0.021-0.495,0.031-0.825,0.053c0.324,5.068,0.486,7.602,0.81,12.671c-2.905,0.186-4.357,0.281-7.261,0.474
				C268.629,87.189,267.901,76.274,267.173,65.36z M274.948,70.713c0.218,3.412,0.327,5.118,0.545,8.53
				c0.633-0.04,0.949-0.061,1.582-0.101c3.819-0.242,5.638-1.862,5.454-4.872c-0.075-1.231-0.634-2.177-1.675-2.839
				c-1.042-0.662-2.447-0.938-4.216-0.826C275.962,70.648,275.624,70.67,274.948,70.713z"/>
			<path fill="#62676C" d="M303.226,63.199c2.942-0.156,4.413-0.233,7.355-0.381c0.551,10.925,1.102,21.85,1.653,32.774
				c-2.906,0.147-4.359,0.222-7.265,0.376C304.388,85.046,303.807,74.123,303.226,63.199z"/>
			<path fill="#62676C" d="M322.583,62.239c4.658-0.214,6.987-0.316,11.646-0.51c4.973-0.207,9.039,1.147,12.179,4.048
				c3.139,2.901,4.789,6.821,4.964,11.749c0.175,4.946-1.238,8.963-4.222,12.058c-2.985,3.096-7.038,4.743-12.174,4.958
				c-4.355,0.182-6.533,0.278-10.887,0.478C323.588,84.094,323.086,73.167,322.583,62.239z M330.259,68.102
				c0.35,8.1,0.525,12.15,0.875,20.251c1.153-0.05,1.729-0.074,2.883-0.123c2.986-0.126,5.407-1.015,7.269-2.673
				c1.862-1.657,2.724-4.333,2.583-8.029c-0.082-2.148-0.62-4.032-1.617-5.653c-0.996-1.62-2.393-2.691-4.188-3.211
				c-1.796-0.519-3.499-0.745-5.106-0.677C331.878,68.032,331.338,68.055,330.259,68.102z"/>
			<path fill="#62676C" d="M361.915,60.72c7.687-0.241,11.531-0.347,19.219-0.533c0.063,2.599,0.094,3.898,0.157,6.496
				c-4.732,0.114-7.098,0.177-11.83,0.312c0.076,2.648,0.113,3.972,0.189,6.621c4.72-0.135,7.08-0.197,11.801-0.311
				c0.062,2.558,0.093,3.838,0.154,6.396c-4.709,0.114-7.064,0.176-11.773,0.31c0.078,2.718,0.116,4.077,0.194,6.796
				c4.697-0.134,7.046-0.196,11.743-0.309c0.063,2.599,0.094,3.898,0.157,6.496c-7.594,0.183-11.391,0.289-18.984,0.526
				C362.6,82.587,362.257,71.653,361.915,60.72z"/>
			<path fill="#62676C" d="M426.93,76.159c1.843,2.081,2.762,3.122,4.597,5.206c1.467-1.399,2.201-2.098,3.672-3.495
				c1.381,1.564,2.07,2.346,3.447,3.912c-0.068,0.099-0.629,0.684-1.682,1.754c-1.052,1.07-1.689,1.623-1.91,1.657
				c2.483,2.809,3.721,4.215,6.191,7.031c-3.299,0.006-4.949,0.011-8.248,0.028c-1.124-1.242-1.687-1.862-2.814-3.103
				c-2.617,1.496-4.503,2.485-5.664,2.959c-1.161,0.475-2.367,0.718-3.618,0.73c-1.421,0.013-2.89-0.259-4.404-0.817
				c-1.515-0.558-2.717-1.51-3.609-2.857c-0.891-1.347-1.349-2.811-1.37-4.394c-0.047-3.599,6.971-8.405,7.098-9.056
				c0.134-0.682-3.237-4.939-3.265-7.388c-0.023-2.049,0.799-3.833,2.472-5.351c1.673-1.517,3.699-2.286,6.074-2.306
				c2.496-0.021,4.591,0.694,6.28,2.141c1.688,1.448,2.536,3.238,2.546,5.369c0.009,1.766-0.687,3.338-2.082,4.72
				C429.244,74.282,428.008,75.369,426.93,76.159z M424.175,82.384c-0.105-0.099-0.431-0.472-0.979-1.117
				c-0.549-0.645-1.193-1.436-1.32-1.439c-0.805-0.017-2.775,3.153-2.76,4.603c0.007,0.701,0.297,1.314,0.869,1.842
				c0.572,0.528,1.244,0.788,2.017,0.781c1.117-0.01,2.639-0.674,4.571-1.99C425.615,83.992,425.136,83.456,424.175,82.384z
				 M423.715,72.447c0.791,0.102,3.207-3.142,3.197-4.526c-0.006-0.8-0.261-1.44-0.766-1.92c-0.505-0.48-1.173-0.716-2.003-0.709
				c-0.779,0.006-1.418,0.275-1.914,0.804c-0.497,0.53-0.741,1.203-0.734,2.02C421.503,69.115,423.148,72.374,423.715,72.447z"/>
			<path fill="#62676C" d="M499.639,67.063c-1.986,1.72-2.978,2.581-4.958,4.305c-0.988-1.718-2.227-3.011-3.717-3.877
				c-1.491-0.866-3.058-1.312-4.702-1.337c-2.665-0.04-4.993,0.904-6.978,2.829c-1.986,1.925-2.99,4.213-3.02,6.863
				c-0.032,2.816,0.919,5.213,2.846,7.195c1.926,1.982,4.26,2.992,7.007,3.033c1.495,0.022,2.938-0.321,4.333-1.031
				c1.395-0.71,2.531-2.065,3.411-4.066c-3.211-0.058-4.816-0.084-8.026-0.132c0.038-2.559,0.057-3.838,0.096-6.397
				c6.271,0.094,9.406,0.15,15.676,0.28c-0.035,1.699-0.053,2.549-0.088,4.248c-0.045,2.183-0.868,4.511-2.464,6.987
				c-1.595,2.477-3.662,4.27-6.201,5.383c-2.541,1.114-5.092,1.651-7.661,1.613c-4.659-0.069-8.566-1.755-11.741-5.071
				c-3.174-3.315-4.751-7.384-4.71-12.217c0.039-4.582,1.732-8.485,5.099-11.699c3.366-3.214,7.409-4.791,12.109-4.721
				C491.952,59.34,496.523,61.951,499.639,67.063z"/>
			<path fill="#62676C" d="M512.651,60.23c4.499,0.112,6.749,0.172,11.248,0.302c3.419,0.099,6.097,1.05,8.027,2.844
				c1.93,1.795,2.843,4.167,2.746,7.113c-0.056,1.681-0.568,3.414-1.534,5.199c-0.967,1.785-2.682,3.154-5.144,4.111
				c3.626,5.586,5.43,8.383,9.017,13.981c-3.341-0.115-5.011-0.169-8.352-0.273c-3.333-5.185-5.009-7.775-8.376-12.949
				c-0.33-0.009-0.496-0.014-0.826-0.023c-0.14,5.077-0.21,7.615-0.349,12.692c-2.908-0.08-4.362-0.118-7.27-0.19
				C512.108,82.101,512.379,71.165,512.651,60.23z M519.902,66.27c-0.094,3.418-0.141,5.127-0.235,8.545
				c0.633,0.017,0.95,0.026,1.584,0.044c3.825,0.108,5.782-1.339,5.874-4.354c0.037-1.232-0.431-2.226-1.408-2.98
				c-0.976-0.754-2.35-1.157-4.121-1.207C520.918,66.298,520.579,66.289,519.902,66.27z"/>
			<path fill="#62676C" d="M547.364,77.723c0.184-4.845,1.995-8.784,5.452-11.806c3.457-3.022,7.482-4.436,12.057-4.234
				c5.061,0.224,9.175,2.009,12.324,5.341c3.149,3.332,4.591,7.423,4.345,12.266c-0.244,4.809-2.073,8.719-5.469,11.739
				c-3.396,3.021-7.541,4.416-12.453,4.198c-4.912-0.218-8.888-1.965-11.943-5.255C548.622,86.682,547.178,82.601,547.364,77.723z
				 M564.92,68.239c-2.85-0.176-5.192,0.675-7.018,2.549c-1.826,1.875-2.798,4.354-2.924,7.433c-0.119,2.914,0.67,5.364,2.358,7.352
				c1.689,1.988,3.877,3.041,6.571,3.16c2.831,0.125,5.159-0.714,6.991-2.521c1.832-1.807,2.825-4.257,2.973-7.353
				c0.146-3.046-0.594-5.534-2.226-7.462C570.015,69.47,567.771,68.416,564.92,68.239z"/>
			<path fill="#62676C" d="M591.819,79.781c0.265-4.841,2.142-8.749,5.649-11.714c3.507-2.964,7.556-4.311,12.129-4.032
				c5.057,0.308,9.141,2.161,12.235,5.545c3.094,3.384,4.469,7.499,4.142,12.337c-0.324,4.805-2.219,8.683-5.664,11.646
				c-3.447,2.964-7.616,4.29-12.525,3.99c-4.909-0.3-8.856-2.113-11.856-5.453C592.928,88.76,591.552,84.656,591.819,79.781z
				 M609.536,70.592c-2.849-0.224-5.204,0.588-7.061,2.432c-1.858,1.844-2.872,4.307-3.049,7.384
				c-0.167,2.911,0.58,5.374,2.236,7.39c1.656,2.017,3.827,3.105,6.519,3.269c2.829,0.173,5.172-0.627,7.034-2.404
				c1.861-1.776,2.895-4.21,3.095-7.302c0.197-3.043-0.501-5.543-2.101-7.498C614.609,71.907,612.383,70.816,609.536,70.592z"/>
			<path fill="#62676C" d="M640.975,66.483c3.492,0.254,5.239,0.384,8.73,0.649c1.958,8.039,2.927,12.06,4.847,20.102
				c3.151-7.645,4.736-11.465,7.924-19.101c3.367,0.272,5.05,0.411,8.416,0.693c0.541,11.022,1.07,22.045,1.588,33.068
				c-2.764-0.237-4.146-0.353-6.91-0.582c-0.424-9.305-0.642-13.957-1.087-23.262c-3.742,8.962-5.6,13.446-9.292,22.421
				c-1.318-0.104-1.976-0.156-3.294-0.258c-2.319-9.526-3.492-14.288-5.865-23.809c-1.828,9.207-2.737,13.811-4.546,23.02
				c-2.811-0.208-4.217-0.309-7.028-0.509C636.62,88.102,638.792,77.292,640.975,66.483z"/>
		</g>
	</g>
</g>
</svg>
