<?xml version="1.0" encoding="utf-8"?>
<!-- Generator: Adobe Illustrator 17.0.0, SVG Export Plug-In . SVG Version: 6.00 Build 0)  -->
<!DOCTYPE svg PUBLIC "-//W3C//DTD SVG 1.1//EN" "http://www.w3.org/Graphics/SVG/1.1/DTD/svg11.dtd">
<svg version="1.1" id="Layer_1" xmlns="http://www.w3.org/2000/svg" xmlns:xlink="http://www.w3.org/1999/xlink" x="0px" y="0px"
	 width="570px" height="126px" viewBox="0 0 570 126" enable-background="new 0 0 570 126" xml:space="preserve">
<g>
	<path fill="#B2B1B2" d="M1.835,62.364c0-33.438,27.107-60.545,60.545-60.545c33.438,0,60.546,27.107,60.546,60.545
		c0,33.438-27.108,60.545-60.546,60.545C28.943,122.91,1.835,95.802,1.835,62.364z M62.38,62.364 M62.38,62.364 M62.38,102.576
		c22.208,0,40.212-18.003,40.212-40.212c0-22.207-18.003-40.211-40.212-40.211c-22.207,0-40.211,18.003-40.211,40.211
		C22.169,84.572,40.173,102.576,62.38,102.576z M62.38,82.859c11.532,0,20.881-9.349,20.881-20.881
		c0-11.532-9.349-20.881-20.881-20.881c-11.531,0-20.88,9.349-20.88,20.881C41.5,73.51,50.848,82.859,62.38,82.859z M62.38,61.978"
		/>
</g>
<g>
	<g>
		<polygon fill="#B2B1B2" points="142.588,18.908 211.577,18.908 211.577,36.316 187.85,36.316 187.85,106.079 166.766,106.079 
			166.766,36.446 142.588,36.446 		"/>
		<path fill="#B2B1B2" d="M276.023,18.908c0,0,15.861,0,40.942,0c23.275,0,26.499,15.926,26.499,25.21
			c0,13.476-11.606,20.246-12.637,20.503c0,0,10.187,3.804,10.187,15.345v16.248c0,6.513,3.998,8.318,4.707,9.865h-16.635
			c-7.93-0.903-7.801-7.221-7.737-10.832V81.256c-0.193-3.417-1.225-7.222-8.382-7.35H296.14v32.174h-20.181L276.023,18.908z
			 M315.482,36.446H296.14v17.408c0,0,15.087,0.048,17.344,0c6.061-0.128,10.752-2.837,10.752-8.768
			C324.236,38.625,320.253,36.446,315.482,36.446z"/>
		<polygon fill="#B2B1B2" points="432.441,18.908 432.441,106.079 495.24,106.079 495.24,88.154 452.945,88.154 452.945,68.683 
			489.051,68.683 489.051,52.177 452.945,52.177 452.945,36.446 495.24,36.446 495.24,18.908 		"/>
		<polygon fill="#B2B1B2" points="498.206,36.446 523.094,36.446 523.094,106.079 543.727,106.079 543.727,36.446 569,36.446 
			569,18.908 498.206,18.908 		"/>
		<path fill="#B2B1B2" d="M221.683,18.892h22.373l30.485,87.187h-21.683l-6.3-18.118h-25.726l-5.941,18.118h-21.5L221.683,18.892z
			 M233.37,49.663l-7.415,22.502h15.281L233.37,49.663z"/>
		<path fill="#B2B1B2" d="M425.219,57.4h-37.46v16.957h17.796c-0.03,3.489,0.518,6.971-3.667,11.871
			c-1.422,1.666-6.298,5.408-13.098,5.408c-5.737,0-9.861-1.64-13.442-4.681c-7.908-6.714-9.77-19.26-9.77-25.817
			c0-8.253,3.289-28.756,23.469-29.594c0,0,13.609-0.879,17.151,15.538h18.891c-0.387-8.317-10.058-31.683-36.042-31.722
			c-8.969-0.012-20.354,2.688-29.779,12.131c-6.821,6.832-12.968,18.312-12.968,34.485c0,17.545,6.461,28.948,12.367,35.216
			c10.368,11.001,20.812,11.851,26.253,11.851c4.321,0,12.574-0.645,23.277-7.866l2.836,4.9h14.185V57.4z"/>
	</g>
	<g>
		<path fill="#B2B1B2" d="M554.278,103.541h-1.226v-7.462h2.829c1.803,0,2.723,0.631,2.723,2.145c0,1.352-0.83,1.911-1.947,2.037
			l2.091,3.281h-1.388l-1.928-3.191h-1.154V103.541z M555.647,99.305c0.919,0,1.73-0.09,1.73-1.171c0-0.902-0.883-1.01-1.622-1.01
			h-1.477v2.181H555.647z M555.612,106.424c-3.876,0-6.632-2.902-6.632-6.741c0-4.056,3.064-6.741,6.632-6.741
			c3.532,0,6.596,2.685,6.596,6.741C562.208,103.739,559.144,106.424,555.612,106.424z M555.612,94.114
			c-2.92,0-5.191,2.289-5.191,5.569c0,3.064,1.982,5.569,5.191,5.569c2.884,0,5.154-2.271,5.154-5.569
			C560.766,96.403,558.496,94.114,555.612,94.114z"/>
	</g>
</g>
</svg>
