<?xml version="1.0" encoding="UTF-8" standalone="no"?>
<!-- Generator: Adobe Illustrator 17.0.0, SVG Export Plug-In . SVG Version: 6.00 Build 0)  -->

<svg
   xmlns:dc="http://purl.org/dc/elements/1.1/"
   xmlns:cc="http://creativecommons.org/ns#"
   xmlns:rdf="http://www.w3.org/1999/02/22-rdf-syntax-ns#"
   xmlns:svg="http://www.w3.org/2000/svg"
   xmlns="http://www.w3.org/2000/svg"
   xmlns:xlink="http://www.w3.org/1999/xlink"
   xmlns:sodipodi="http://sodipodi.sourceforge.net/DTD/sodipodi-0.dtd"
   xmlns:inkscape="http://www.inkscape.org/namespaces/inkscape"
   version="1.1"
   id="Layer_1"
   x="0px"
   y="0px"
   width="1094px"
   height="209px"
   viewBox="0 0 1094 209"
   style="enable-background:new 0 0 1094 209;"
   xml:space="preserve"
   inkscape:version="0.91 r13725"
   sodipodi:docname="base.svg"><metadata
     id="metadata61"><rdf:RDF><cc:Work
         rdf:about=""><dc:format>image/svg+xml</dc:format><dc:type
           rdf:resource="http://purl.org/dc/dcmitype/StillImage" /><dc:title></dc:title></cc:Work></rdf:RDF></metadata><defs
     id="defs59" /><sodipodi:namedview
     pagecolor="#ffffff"
     bordercolor="#666666"
     borderopacity="1"
     objecttolerance="10"
     gridtolerance="10"
     guidetolerance="10"
     inkscape:pageopacity="0"
     inkscape:pageshadow="2"
     inkscape:window-width="1920"
     inkscape:window-height="1033"
     id="namedview57"
     showgrid="false"
     showguides="true"
     inkscape:guide-bbox="true"
     inkscape:zoom="2"
     inkscape:cx="486.58194"
     inkscape:cy="117.75518"
     inkscape:window-x="-2"
     inkscape:window-y="-3"
     inkscape:window-maximized="1"
     inkscape:current-layer="g5"><sodipodi:guide
       position="347.5,117.5"
       orientation="0,1"
       id="guide4403" /></sodipodi:namedview><style
     type="text/css"
     id="style3">
	.st0{fill:#62676C;}
	.st1{fill:#50555B;}
	.st2{fill:#393D42;}
	.st3{fill:none;stroke:#989CA3;stroke-width:3;stroke-linecap:round;stroke-linejoin:round;stroke-miterlimit:10;}
	.st4{fill:#FFF7E4;}
	.st5{fill:#FFFFFF;}
	.st6{fill:#E9EFD7;}
	.st7{fill:#E8ECD5;}
</style><g
     id="g5"><g
       id="g7"><g
         id="g9"><path
           class="st6"
           d="M1065.9,192.6c-62.3-9.6-124.8-17.6-187.6-24c3-29.9,5.9-59.8,8.9-89.8c64.4,6.5,128.6,14.7,192.6,24.6     c-12.5,14.2-24.9,28.5-37.2,42.9C1050.5,161.8,1058.2,177.2,1065.9,192.6z"
           id="path11"
           style="fill:#62676c;fill-opacity:1" /><path
           class="st5"
           d="M1070.8,196.2c-65-10.2-130.1-18.5-195.5-25.1c3.1-31.8,6.3-63.5,9.4-95.3c67.2,6.7,134.1,15.3,200.7,25.7     c-13.3,15-26.4,30-39.4,45.2C1054.4,163.2,1062.6,179.7,1070.8,196.2z M881.4,166.2c60.1,6.1,119.9,13.8,179.6,22.9     c-7.1-14.4-14.4-28.8-21.7-43.1c11.6-13.6,23.3-27.1,35.1-40.5C1013,96.1,951.6,88.3,889.9,82C887,110,884.2,138.1,881.4,166.2z"
           id="path13" /></g><g
         id="g15"><path
           class="st6"
           d="M15.4,103.5c64-9.9,128.2-18.1,192.6-24.6c3,29.9,5.9,59.8,8.9,89.8c-62.7,6.4-125.2,14.3-187.6,24     c7.4-17.4,14.8-34.7,22.4-51.9C39.7,128.2,27.6,115.9,15.4,103.5z"
           id="path17"
           style="fill:#62676c;fill-opacity:1" /><path
           class="st5"
           d="M220,171.2c-65.3,6.6-130.3,14.9-195.2,25c7.7-18.4,15.6-36.7,23.6-54.9C35.5,128,22.5,114.8,9.5,101.6     c66.8-10.5,133.8-19.1,201.1-25.8C213.7,107.6,216.9,139.4,220,171.2z M33.9,189.1c59.8-9.2,119.8-16.8,179.9-23     c-2.8-28.1-5.6-56.1-8.4-84.2c-61.6,6.3-122.9,14.1-184.1,23.5c11.4,11.5,22.6,23,33.8,34.7C48,156.4,40.9,172.7,33.9,189.1z"
           id="path19" /></g><g
         id="g21"><path
           class="st6"
           d="M995.4,147.9c-293.8-38.6-591-39.1-884.9-1.4c-4.4-34.1-8.9-68.1-13.3-102.2C400,5.4,706.4,5.9,1009.1,45.8     C1004.5,79.8,1000,113.9,995.4,147.9z"
           id="path23"
           style="fill:#62676c;fill-opacity:1" /><path
           class="st5"
           d="M997.9,151.1c-295.4-39.1-594.3-39.6-889.8-1.4c-4.7-35.9-9.4-71.8-14.1-107.7     c305-39.4,613.5-38.9,918.4,1.5C1007.5,79.3,1002.7,115.2,997.9,151.1z M113,143.4c292.3-37.2,587.8-36.8,880,1.4     c4.3-32.2,8.6-64.4,12.8-96.7C705.2,8.9,401.2,8.4,100.5,46.7C104.6,78.9,108.8,111.2,113,143.4z"
           id="path25" /></g></g><path
       inkscape:connector-curvature="0"
       style="fill:none;fill-opacity:1;stroke:#ff0000;stroke-width:16.74965858;stroke-opacity:1"
       d="M 4191.2993,3773.9585 A 3643.8492,3643.8492 0 0 1 547.45007,7417.8079 3643.8492,3643.8492 0 0 1 -3096.3993,3773.9585 3643.8492,3643.8492 0 0 1 547.45007,130.10923 3643.8492,3643.8492 0 0 1 4191.2993,3773.9585 Z"
       id="path4395" /><path
       id="path4398"
       d="m 631.89096,3773.9586 a 84.441007,80.301311 0 0 1 -84.44106,80.3012 84.441007,80.301311 0 0 1 -84.44089,-80.3012 84.441007,80.301311 0 0 1 84.44089,-80.3013 84.441007,80.301311 0 0 1 84.44106,80.3013 z"
       style="fill:none;fill-opacity:1;stroke:#000000;stroke-width:11.39602089;stroke-miterlimit:4;stroke-dasharray:none;stroke-opacity:1"
       inkscape:connector-curvature="0" /><text
       xml:space="preserve"
       style="font-style:normal;font-variant:normal;font-weight:bold;font-stretch:normal;font-size:50px;line-height:125%;font-family:Liberator;-inkscape-font-specification:'Liberator, Bold';text-align:start;letter-spacing:0px;word-spacing:0px;writing-mode:lr-tb;text-anchor:start;opacity:0.91000001;fill:#e8ecd5;fill-opacity:1;stroke:none;stroke-width:1px;stroke-linecap:butt;stroke-linejoin:miter;stroke-opacity:1"
       id="text4409"
       sodipodi:linespacing="125%"
       inkscape:transform-center-x="83.838065"
       inkscape:transform-center-y="-3661.4818"
       transform="matrix(-0.05282982,-0.99860354,0.99860354,-0.05282982,-3194.1514,4476.9169)"><textPath
         xlink:href="#path4395"
         id="textPath4415">DOVE ALLOGGIARE</textPath></text>
</g></svg>