<?xml version="1.0" encoding="UTF-8" standalone="no"?>
<svg
   xmlns:dc="http://purl.org/dc/elements/1.1/"
   xmlns:cc="http://creativecommons.org/ns#"
   xmlns:rdf="http://www.w3.org/1999/02/22-rdf-syntax-ns#"
   xmlns:svg="http://www.w3.org/2000/svg"
   xmlns="http://www.w3.org/2000/svg"
   xmlns:sodipodi="http://sodipodi.sourceforge.net/DTD/sodipodi-0.dtd"
   xmlns:inkscape="http://www.inkscape.org/namespaces/inkscape"
   xml:space="preserve"
   viewBox="0 0 494.92255 203.3797"
   y="0px"
   x="0px"
   id="Layer_1"
   version="1.1"
   inkscape:version="0.91 r13725"
   sodipodi:docname="gli_sposi_path.svg"
   width="494.92255"
   height="203.3797"><sodipodi:namedview
     pagecolor="#ffffff"
     bordercolor="#666666"
     borderopacity="1"
     objecttolerance="10"
     gridtolerance="10"
     guidetolerance="10"
     inkscape:pageopacity="0"
     inkscape:pageshadow="2"
     inkscape:window-width="1920"
     inkscape:window-height="1033"
     id="namedview28"
     showgrid="false"
     fit-margin-top="10"
     fit-margin-left="10"
     fit-margin-right="10"
     fit-margin-bottom="10"
     inkscape:zoom="0.35191956"
     inkscape:cx="-144.55372"
     inkscape:cy="101.7"
     inkscape:window-x="-2"
     inkscape:window-y="-3"
     inkscape:window-maximized="1"
     inkscape:current-layer="Layer_1" /><metadata
     id="metadata61"><rdf:RDF><cc:Work
         rdf:about=""><dc:format>image/svg+xml</dc:format><dc:type
           rdf:resource="http://purl.org/dc/dcmitype/StillImage" /><dc:title></dc:title></cc:Work></rdf:RDF></metadata><defs
     id="defs59" /><style
     id="style3"
     type="text/css">
	.st0{fill:#62676C;}
	.st1{fill:#50555B;}
	.st2{fill:#393D42;}
	.st3{fill:none;stroke:#989CA3;stroke-width:3;stroke-linecap:round;stroke-linejoin:round;stroke-miterlimit:10;}
	.st4{fill:#FFF7E4;}
	.st5{fill:#FFFFFF;}
	.st6{fill:#E9EFD7;}
	.st7{fill:#E8ECD5;}
</style><g
     id="g4177"
     transform="translate(-300.83944,-2.8203008)"><g
       transform="matrix(0.44141885,0,0,1,306.64596,0)"
       id="g7"><g
         id="g9"><path
           style="fill:#e9efd7"
           id="path11"
           d="m 1065.9,192.6 c -62.3,-9.6 -124.8,-17.6 -187.6,-24 3,-29.9 5.9,-59.8 8.9,-89.8 64.4,6.5 128.6,14.7 192.6,24.6 -12.5,14.2 -24.9,28.5 -37.2,42.9 7.9,15.5 15.6,30.9 23.3,46.3 z"
           class="st6"
           inkscape:connector-curvature="0" /><path
           style="fill:#ffffff"
           id="path13"
           d="m 1070.8,196.2 c -65,-10.2 -130.1,-18.5 -195.5,-25.1 3.1,-31.8 6.3,-63.5 9.4,-95.3 67.2,6.7 134.1,15.3 200.7,25.7 -13.3,15 -26.4,30 -39.4,45.2 8.4,16.5 16.6,33 24.8,49.5 z m -189.4,-30 c 60.1,6.1 119.9,13.8 179.6,22.9 -7.1,-14.4 -14.4,-28.8 -21.7,-43.1 11.6,-13.6 23.3,-27.1 35.1,-40.5 C 1013,96.1 951.6,88.3 889.9,82 c -2.9,28 -5.7,56.1 -8.5,84.2 z"
           class="st5"
           inkscape:connector-curvature="0" /></g><g
         id="g15"><path
           style="fill:#e9efd7"
           id="path17"
           d="m 15.4,103.5 c 64,-9.9 128.2,-18.1 192.6,-24.6 3,29.9 5.9,59.8 8.9,89.8 -62.7,6.4 -125.2,14.3 -187.6,24 7.4,-17.4 14.8,-34.7 22.4,-51.9 -12,-12.6 -24.1,-24.9 -36.3,-37.3 z"
           class="st6"
           inkscape:connector-curvature="0" /><path
           style="fill:#ffffff"
           id="path19"
           d="m 220,171.2 c -65.3,6.6 -130.3,14.9 -195.2,25 7.7,-18.4 15.6,-36.7 23.6,-54.9 C 35.5,128 22.5,114.8 9.5,101.6 76.3,91.1 143.3,82.5 210.6,75.8 c 3.1,31.8 6.3,63.6 9.4,95.4 z M 33.9,189.1 c 59.8,-9.2 119.8,-16.8 179.9,-23 C 211,138 208.2,110 205.4,81.9 143.8,88.2 82.5,96 21.3,105.4 c 11.4,11.5 22.6,23 33.8,34.7 -7.1,16.3 -14.2,32.6 -21.2,49 z"
           class="st5"
           inkscape:connector-curvature="0" /></g><g
         id="g21"><path
           style="fill:#e9efd7"
           id="path23"
           d="M 995.4,147.9 C 701.6,109.3 404.4,108.8 110.5,146.5 106.1,112.4 101.6,78.4 97.2,44.3 400,5.4 706.4,5.9 1009.1,45.8 c -4.6,34 -9.1,68.1 -13.7,102.1 z"
           class="st6"
           inkscape:connector-curvature="0" /><path
           style="fill:#ffffff"
           id="path25"
           d="M 997.9,151.1 C 702.5,112 403.6,111.5 108.1,149.7 103.4,113.8 98.7,77.9 94,42 399,2.6 707.5,3.1 1012.4,43.5 c -4.9,35.8 -9.7,71.7 -14.5,107.6 z M 113,143.4 c 292.3,-37.2 587.8,-36.8 880,1.4 4.3,-32.2 8.6,-64.4 12.8,-96.7 C 705.2,8.9 401.2,8.4 100.5,46.7 c 4.1,32.2 8.3,64.5 12.5,96.7 z"
           class="st5"
           inkscape:connector-curvature="0" /></g></g><g
       id="text4409"
       style="font-style:normal;font-variant:normal;font-weight:bold;font-stretch:normal;font-size:50px;line-height:125%;font-family:Liberator;-inkscape-font-specification:'Liberator, Bold';text-align:start;letter-spacing:0px;word-spacing:0px;writing-mode:lr-tb;text-anchor:start;fill:#000000;fill-opacity:1;stroke:none;stroke-width:1px;stroke-linecap:butt;stroke-linejoin:miter;stroke-opacity:1"
       transform="matrix(-0.14938238,-0.9887795,0.9887795,-0.14938238,-153.24408,1453.1684)"><path
         id="path4152"
         style="fill:#62676c;fill-opacity:1"
         d="m 1265.1441,810.63544 -4.3991,-0.0878 c -0.1,-0.002 -0.199,-0.054 -0.347,-0.15695 l -0.6859,-0.71383 0.1167,-5.84883 0.7129,-0.63591 c 0.1529,-0.14698 0.2529,-0.14499 0.3539,-0.19298 l 17.8464,0.35602 c 0,0 0.2,0.004 0.346,0.20694 l 0.8338,0.8168 c 0.147,0.15296 0.145,0.25294 0.143,0.35292 l -0.097,4.84903 c 0,0.1 -0.01,0.24996 -0.157,0.34694 l -0.8667,0.83288 c -0.153,0.14698 -0.353,0.14299 -0.353,0.14299 l -1.2997,-0.0259 c -0.3499,-0.007 -0.7059,0.28598 -0.7138,0.6859 l -0.1177,5.89883 c -0.01,0.39992 0.335,0.75683 0.6849,0.76381 l 5.2989,0.10571 0.051,-0.049 -10e-4,0.05 c 0,0 0.6989,0.0639 1.3107,-0.52397 l 2.8553,-2.74359 c 0.6119,-0.58791 0.5758,-1.28877 0.5758,-1.28877 l 0.2583,-12.94743 c 0,0 0.064,-0.69886 -0.5239,-1.31071 l -2.7436,-2.85529 c -0.5879,-0.61185 -1.2898,-0.52583 -1.2898,-0.52583 l 10e-4,-0.05 -25.5949,-0.5106 -0.051,0.049 c 0,0 -0.6978,-0.11395 -1.3097,0.47397 l -2.8553,2.74359 c -0.6118,0.58792 -0.5758,1.28878 -0.5758,1.28878 l -0.2583,12.94742 c 0,0 -0.064,0.69886 0.524,1.31071 l 2.7436,2.85529 c 0.2939,0.30592 0.6409,0.46287 0.8898,0.51785 l -10e-4,0.05 15.197,0.30317 c 0.3999,0.008 0.7068,-0.33597 0.7148,-0.73589 l 0.1975,-9.89803 c 0.01,-0.39992 -0.286,-0.70584 -0.6859,-0.71382 l -5.9488,-0.11868 c -0.35,-0.007 -0.7059,0.28598 -0.7139,0.6859 l -0.066,3.29935 z"
         inkscape:connector-curvature="0" /><path
         id="path4154"
         style="fill:#62676c;fill-opacity:1"
         d="m 1258.0642,844.85035 0.7943,-13.37644 26.8527,1.5945 c 0.3024,-0.0321 0.5698,-0.31679 0.5905,-0.66617 l 0.3498,-5.88963 c 0.021,-0.34938 -0.2111,-0.66367 -0.5076,-0.73137 l 0,-0.0499 -33.491,-1.98868 c -0.3993,-0.0237 -0.7195,0.3079 -0.7433,0.70719 l -1.1855,19.96484 c -0.024,0.39929 0.2551,0.76646 0.6544,0.79017 l 5.9395,0.35269 c 0.3494,0.0207 0.7195,-0.3079 0.7432,-0.70719 z"
         inkscape:connector-curvature="0" /><path
         id="path4156"
         style="fill:#62676c;fill-opacity:1"
         d="m 1284.2733,860.20039 0.5197,-5.92725 c 0.035,-0.39848 -0.2377,-0.72353 -0.6362,-0.75847 l -33.2723,-2.91749 c -0.3985,-0.0349 -0.7236,0.23771 -0.7585,0.63618 l -0.5197,5.92726 c -0.035,0.39847 0.2377,0.72353 0.6361,0.75847 l 33.2724,2.91748 c 0.3985,0.0349 0.7235,-0.23771 0.7585,-0.63618 z"
         inkscape:connector-curvature="0" /><path
         id="path4158"
         style="fill:#62676c;fill-opacity:1"
         d="m 1274.1385,906.05494 c 0,0 0.6862,0.14712 1.364,-0.36335 l 3.1631,-2.38221 c 0.7273,-0.5035 0.7259,-1.2106 0.7259,-1.2106 l 1.8058,-12.82348 c 0,0 0.1966,-0.67922 -0.3634,-1.36399 l -2.3822,-3.16309 c -0.5104,-0.6778 -1.2175,-0.67639 -1.2175,-0.67639 l 0.01,-0.0495 -11.7342,-1.6524 -0.01,0.0495 c 0,0 -0.6792,-0.19663 -1.357,0.31384 l -3.1631,2.3822 c -0.6778,0.51047 -0.7259,1.21061 -0.7259,1.21061 l -1.255,8.91207 c -0.014,0.099 -0.07,0.14156 -0.1834,0.22664 l -0.9107,0.73014 c -0.2189,0.12065 -0.417,0.0928 -0.417,0.0928 l -3.7133,-0.52292 c 0,0 -0.1981,-0.0279 -0.3752,-0.20431 l -0.6737,-0.95325 c -0.085,-0.11296 -0.1276,-0.16945 -0.1136,-0.26847 l 0.8784,-6.23845 2.2281,0.31375 c 0.3961,0.0558 0.735,-0.19946 0.7907,-0.59555 l 0.8227,-5.84236 c 0.056,-0.39609 -0.1924,-0.78451 -0.5885,-0.84028 l -4.8026,-0.6763 c -0.05,-0.007 -0.106,0.0356 -0.106,0.0356 0,0 -0.6793,-0.19663 -1.3571,0.31384 l -3.163,2.38221 c -0.6779,0.51047 -0.726,1.2106 -0.726,1.2106 l -1.8057,12.82348 c 0,0 -0.1472,0.68619 0.3633,1.36399 l 2.3822,3.16309 c 0.5105,0.6778 1.2106,0.7259 1.2106,0.7259 l 11.7342,1.6524 c 0,0 0.6862,0.14712 1.364,-0.36335 l 3.1631,-2.3822 c 0.7273,-0.5035 0.7259,-1.21061 0.7259,-1.21061 l 1.3038,-9.25865 0.7908,-0.59555 c 0.2259,-0.17016 0.417,-0.0928 0.417,-0.0928 l -0.043,-0.0565 4.0104,0.56475 c 0,0 0.198,0.0279 0.3682,0.25382 l 0.6806,0.90374 c 0.1276,0.16945 0.1137,0.26847 0.1,0.36749 l -0.8646,6.13943 -2.4756,-0.34861 c -0.3961,-0.0558 -0.735,0.19946 -0.7907,0.59555 l -0.8228,5.84236 c -0.056,0.39609 0.1925,0.78451 0.5886,0.84028 l 5.0997,0.71814 0.057,-0.0425 -0.01,0.0495 z"
         inkscape:connector-curvature="0" /><path
         id="path4160"
         style="fill:#62676c;fill-opacity:1"
         d="m 1269.2172,934.23755 c 0,0 0.6799,0.17399 1.3773,-0.30943 l 3.3035,-2.24707 c 0.6973,-0.48343 0.7237,-1.19004 0.7237,-1.19004 l 2.8346,-15.64531 c 0.071,-0.39359 -0.1705,-0.74226 -0.564,-0.81357 l -33.0126,-5.98103 c -0.3444,-0.0624 -0.7423,0.17041 -0.8136,0.564 l -1.0518,5.80549 c -0.071,0.39359 0.2107,0.80038 0.5551,0.86277 l 11.9554,2.16601 -1.6491,9.10183 c 0,0 -0.2231,0.67095 0.2603,1.36831 l 2.3052,3.26322 c 0.4834,0.69735 1.1811,0.77294 1.1811,0.77294 l 0.01,-0.0492 0.04,0.0581 12.5457,2.27296 z m -0.1787,-14.15867 -0.9181,5.0675 c 0,0 -0.036,0.1968 -0.2189,0.36686 l -0.9879,0.68485 c -0.1744,0.12085 -0.3712,0.0852 -0.3712,0.0852 l -4.6247,-0.83788 c 0,0 -0.1968,-0.0357 -0.3668,-0.2189 l -0.6357,-0.97901 c -0.1611,-0.23245 -0.076,-0.42033 -0.076,-0.42033 l 0.9181,-5.0675 7.2815,1.31921 z"
         inkscape:connector-curvature="0" /><path
         id="path4162"
         style="fill:#62676c;fill-opacity:1"
         d="m 1263.1313,962.1057 c 0,0 0.6619,0.24884 1.3773,-0.20739 l 3.3495,-2.17789 c 0.7643,-0.44543 0.8178,-1.15051 0.8178,-1.15051 l 2.7865,-12.59545 c 0,0 0.2489,-0.66187 -0.2562,-1.38811 l -2.129,-3.33872 c -0.4563,-0.71544 -1.1505,-0.81783 -1.1505,-0.81783 l -25.0445,-5.54061 c 0,0 -0.6727,-0.20002 -1.3881,0.25621 l -3.3387,2.12907 c -0.7155,0.45623 -0.8178,1.15051 -0.8178,1.15051 l -2.7973,12.64427 c 0,0 -0.1893,0.62385 0.267,1.33929 l 2.1182,3.38754 c 0.4563,0.71544 1.1613,0.76901 1.1613,0.76901 l 25.0445,5.54061 z m -0.7678,-9.02901 c -0.011,0.0488 -0.043,0.19528 -0.2221,0.30933 l -0.9539,0.60831 c -0.2385,0.15208 -0.4229,0.0601 -0.4229,0.0601 l -17.4286,-3.85575 c -0.098,-0.0216 -0.1953,-0.0432 -0.3094,-0.22206 l -0.5322,-0.83468 1.2528,-5.66307 0.8347,-0.53227 c 0.1681,-0.0652 0.2765,-0.0925 0.3741,-0.0709 l 17.4286,3.85575 c 0,0 0.1953,0.0432 0.3582,0.23286 l 0.5975,1.00274 c 0.1248,0.13004 0.092,0.2765 0.082,0.32532 l -1.0584,4.78432 z"
         inkscape:connector-curvature="0" /><path
         id="path4164"
         style="fill:#62676c;fill-opacity:1"
         d="m 1255.8455,990.32743 c 0,0 0.6642,0.22654 1.3972,-0.20096 l 3.4205,-1.995 c 0.7813,-0.41477 0.8628,-1.11717 0.8628,-1.11717 l 3.2965,-12.52339 c 0,0 0.2749,-0.65149 -0.2009,-1.39719 l -1.995,-3.42052 c -0.4275,-0.73297 -1.1299,-0.81445 -1.1299,-0.81445 l 0.013,-0.0484 -11.4596,-3.01651 -0.013,0.0483 c 0,0 -0.6515,-0.27489 -1.3845,0.15261 l -3.4205,1.995 c -0.733,0.4275 -0.8628,1.11717 -0.8628,1.11717 l -2.291,8.70351 c -0.025,0.0967 -0.087,0.13234 -0.2087,0.20359 l -0.9901,0.61835 c -0.2316,0.0942 -0.425,0.0432 -0.425,0.0432 l -3.6264,-0.95459 c 0,0 -0.1934,-0.0509 -0.3487,-0.24688 l -0.5572,-1.02564 c -0.071,-0.12216 -0.1069,-0.18324 -0.082,-0.27995 l 1.6038,-6.09246 2.1758,0.57275 c 0.3869,0.10182 0.7533,-0.11193 0.8552,-0.49875 l 1.5019,-5.70564 c 0.1018,-0.38682 -0.099,-0.80166 -0.4861,-0.90348 l -4.6902,-1.23461 c -0.048,-0.0127 -0.1094,0.0229 -0.1094,0.0229 0,0 -0.6515,-0.2749 -1.3845,0.1526 l -3.4205,1.995 c -0.733,0.4275 -0.8628,1.11717 -0.8628,1.11717 l -3.2965,12.5234 c 0,0 -0.2266,0.66421 0.2009,1.39718 l 1.995,3.42052 c 0.4275,0.73297 1.1172,0.86281 1.1172,0.86281 l 11.4596,3.01651 c 0,0 0.6642,0.22654 1.3972,-0.20096 l 3.4205,-1.995 c 0.7813,-0.41477 0.8628,-1.11717 0.8628,-1.11717 l 2.3801,-9.04199 0.8552,-0.49875 c 0.2443,-0.1425 0.425,-0.0432 0.425,-0.0432 l -0.036,-0.0611 3.9165,1.03096 c 0,0 0.1935,0.0509 0.336,0.29524 l 0.57,0.97729 c 0.1068,0.18324 0.081,0.27995 0.056,0.37665 l -1.5782,5.99576 -2.4177,-0.63639 c -0.3868,-0.10183 -0.7533,0.11192 -0.8551,0.49875 l -1.5019,5.70564 c -0.1018,0.38682 0.099,0.80166 0.486,0.90348 l 4.9804,1.31097 0.061,-0.0356 -0.013,0.0484 z"
         inkscape:connector-curvature="0" /><path
         id="path4166"
         style="fill:#62676c;fill-opacity:1"
         d="m 1256.4225,1004.2529 1.6807,-5.70764 c 0.113,-0.38371 -0.09,-0.75623 -0.4737,-0.86922 l -32.0398,-9.43461 c -0.3837,-0.11299 -0.7562,0.0901 -0.8692,0.47376 l -1.6807,5.70769 c -0.113,0.38371 0.09,0.75623 0.4737,0.86922 l 32.0398,9.4346 c 0.3837,0.113 0.7562,-0.09 0.8692,-0.4738 z"
         inkscape:connector-curvature="0" /></g></g></svg>