<?xml version="1.0" encoding="UTF-8" standalone="no"?>
<svg
   xmlns:dc="http://purl.org/dc/elements/1.1/"
   xmlns:cc="http://creativecommons.org/ns#"
   xmlns:rdf="http://www.w3.org/1999/02/22-rdf-syntax-ns#"
   xmlns:svg="http://www.w3.org/2000/svg"
   xmlns="http://www.w3.org/2000/svg"
   xmlns:sodipodi="http://sodipodi.sourceforge.net/DTD/sodipodi-0.dtd"
   xmlns:inkscape="http://www.inkscape.org/namespaces/inkscape"
   xml:space="preserve"
   viewBox="0 0 553.3266 203.3797"
   y="0px"
   x="0px"
   id="Layer_1"
   version="1.1"
   inkscape:version="0.91 r13725"
   sodipodi:docname="i_testimoni_path.svg"
   width="553.3266"
   height="203.3797"><sodipodi:namedview
     pagecolor="#ffffff"
     bordercolor="#666666"
     borderopacity="1"
     objecttolerance="10"
     gridtolerance="10"
     guidetolerance="10"
     inkscape:pageopacity="0"
     inkscape:pageshadow="2"
     inkscape:window-width="1550"
     inkscape:window-height="961"
     id="namedview30"
     showgrid="false"
     inkscape:zoom="0.70383912"
     inkscape:cx="127.59551"
     inkscape:cy="19.03826"
     inkscape:window-x="0"
     inkscape:window-y="0"
     inkscape:window-maximized="0"
     inkscape:current-layer="Layer_1"
     fit-margin-top="10"
     fit-margin-left="10"
     fit-margin-right="10"
     fit-margin-bottom="10" /><metadata
     id="metadata61"><rdf:RDF><cc:Work
         rdf:about=""><dc:format>image/svg+xml</dc:format><dc:type
           rdf:resource="http://purl.org/dc/dcmitype/StillImage" /><dc:title></dc:title></cc:Work></rdf:RDF></metadata><defs
     id="defs59" /><style
     id="style3"
     type="text/css">
	.st0{fill:#62676C;}
	.st1{fill:#50555B;}
	.st2{fill:#393D42;}
	.st3{fill:none;stroke:#989CA3;stroke-width:3;stroke-linecap:round;stroke-linejoin:round;stroke-miterlimit:10;}
	.st4{fill:#FFF7E4;}
	.st5{fill:#FFFFFF;}
	.st6{fill:#E9EFD7;}
	.st7{fill:#E8ECD5;}
</style><g
     id="g4246"
     transform="translate(-271.37722,-2.8203008)"><g
       transform="matrix(0.49570277,0,0,1,276.66804,0)"
       id="g7"><g
         id="g9"><path
           style="fill:#62676c;fill-opacity:1"
           id="path11"
           d="m 1065.9,192.6 c -62.3,-9.6 -124.8,-17.6 -187.6,-24 3,-29.9 5.9,-59.8 8.9,-89.8 64.4,6.5 128.6,14.7 192.6,24.6 -12.5,14.2 -24.9,28.5 -37.2,42.9 7.9,15.5 15.6,30.9 23.3,46.3 z"
           class="st6"
           inkscape:connector-curvature="0" /><path
           style="fill:#ffffff"
           id="path13"
           d="m 1070.8,196.2 c -65,-10.2 -130.1,-18.5 -195.5,-25.1 3.1,-31.8 6.3,-63.5 9.4,-95.3 67.2,6.7 134.1,15.3 200.7,25.7 -13.3,15 -26.4,30 -39.4,45.2 8.4,16.5 16.6,33 24.8,49.5 z m -189.4,-30 c 60.1,6.1 119.9,13.8 179.6,22.9 -7.1,-14.4 -14.4,-28.8 -21.7,-43.1 11.6,-13.6 23.3,-27.1 35.1,-40.5 C 1013,96.1 951.6,88.3 889.9,82 c -2.9,28 -5.7,56.1 -8.5,84.2 z"
           class="st5"
           inkscape:connector-curvature="0" /></g><g
         id="g15"><path
           style="fill:#62676c;fill-opacity:1"
           id="path17"
           d="m 15.4,103.5 c 64,-9.9 128.2,-18.1 192.6,-24.6 3,29.9 5.9,59.8 8.9,89.8 -62.7,6.4 -125.2,14.3 -187.6,24 7.4,-17.4 14.8,-34.7 22.4,-51.9 -12,-12.6 -24.1,-24.9 -36.3,-37.3 z"
           class="st6"
           inkscape:connector-curvature="0" /><path
           style="fill:#ffffff"
           id="path19"
           d="m 220,171.2 c -65.3,6.6 -130.3,14.9 -195.2,25 7.7,-18.4 15.6,-36.7 23.6,-54.9 C 35.5,128 22.5,114.8 9.5,101.6 76.3,91.1 143.3,82.5 210.6,75.8 c 3.1,31.8 6.3,63.6 9.4,95.4 z M 33.9,189.1 c 59.8,-9.2 119.8,-16.8 179.9,-23 C 211,138 208.2,110 205.4,81.9 143.8,88.2 82.5,96 21.3,105.4 c 11.4,11.5 22.6,23 33.8,34.7 -7.1,16.3 -14.2,32.6 -21.2,49 z"
           class="st5"
           inkscape:connector-curvature="0" /></g><g
         id="g21"><path
           style="fill:#62676c;fill-opacity:1"
           id="path23"
           d="M 995.4,147.9 C 701.6,109.3 404.4,108.8 110.5,146.5 106.1,112.4 101.6,78.4 97.2,44.3 400,5.4 706.4,5.9 1009.1,45.8 c -4.6,34 -9.1,68.1 -13.7,102.1 z"
           class="st6"
           inkscape:connector-curvature="0" /><path
           style="fill:#ffffff"
           id="path25"
           d="M 997.9,151.1 C 702.5,112 403.6,111.5 108.1,149.7 103.4,113.8 98.7,77.9 94,42 399,2.6 707.5,3.1 1012.4,43.5 c -4.9,35.8 -9.7,71.7 -14.5,107.6 z M 113,143.4 c 292.3,-37.2 587.8,-36.8 880,1.4 4.3,-32.2 8.6,-64.4 12.8,-96.7 C 705.2,8.9 401.2,8.4 100.5,46.7 c 4.1,32.2 8.3,64.5 12.5,96.7 z"
           class="st5"
           inkscape:connector-curvature="0" /></g></g><g
       id="text4409"
       style="font-style:normal;font-variant:normal;font-weight:bold;font-stretch:normal;font-size:50px;line-height:125%;font-family:Liberator;-inkscape-font-specification:'Liberator, Bold';text-align:start;letter-spacing:0px;word-spacing:0px;writing-mode:lr-tb;text-anchor:start;opacity:0.91000001;fill:#e8ecd5;fill-opacity:1;stroke:none;stroke-width:1px;stroke-linecap:butt;stroke-linejoin:miter;stroke-opacity:1"
       transform="matrix(-0.14233155,-0.98981904,0.98981904,-0.14233155,-356.72469,1644.9092)"><path
         id="path4158"
         d="m 1455.8348,1002.5326 0.042,-5.94981 c 0,-0.39999 -0.2951,-0.70209 -0.6951,-0.7049 l -33.3991,-0.23491 c -0.4,-0.003 -0.7021,0.29507 -0.7049,0.69506 l -0.042,5.94986 c 0,0.4 0.2951,0.7021 0.6951,0.7049 l 33.3992,0.2349 c 0.3999,0 0.7021,-0.2951 0.7049,-0.6951 z"
         inkscape:connector-curvature="0" /><path
         id="path4160"
         d="m 1454.3962,1046.844 0.9613,-19.9769 c 0.019,-0.3995 -0.3136,-0.766 -0.7131,-0.7852 l -5.8932,-0.2836 c -0.3995,-0.019 -0.716,0.316 -0.7352,0.7155 l -0.3052,6.3427 -26.869,-1.293 c -0.3519,0.033 -0.6161,0.3207 -0.6329,0.6703 l -0.2836,5.8932 c -0.017,0.3496 0.2185,0.6613 0.5657,0.728 l 26.8689,1.293 -0.3052,6.3427 c -0.019,0.3995 0.2636,0.7635 0.6631,0.7828 l 5.8932,0.2836 c 0.3995,0.019 0.7659,-0.3136 0.7852,-0.7131 z"
         inkscape:connector-curvature="0" /><path
         id="path4162"
         d="m 1446.1403,1060.7958 -0.8979,11.515 c -0.027,0.349 0.2447,0.7212 0.6435,0.7523 l 5.932,0.4626 c 0.3988,0.031 0.7251,-0.2945 0.7523,-0.6435 l 1.4148,-18.1449 c 0.031,-0.3988 -0.2446,-0.7212 -0.6434,-0.7523 l -33.4485,-2.6082 c -0.3988,-0.031 -0.7212,0.2447 -0.7523,0.6435 l -1.4148,18.1449 c -0.027,0.349 0.2446,0.7212 0.6434,0.7523 l 5.932,0.4626 c 0.3988,0.031 0.7251,-0.2946 0.7523,-0.6435 l 0.8979,-11.515 6.4305,0.5014 -0.688,8.8232 c -0.031,0.3988 0.2447,0.7212 0.6434,0.7523 l 5.932,0.4625 c 0.3988,0.031 0.7212,-0.2446 0.7523,-0.6434 l 0.688,-8.8232 6.4305,0.5014 z"
         inkscape:connector-curvature="0" /><path
         id="path4164"
         d="m 1444.8363,1102.2854 c 0,0 0.6905,0.1256 1.3521,-0.4057 l 3.0873,-2.4796 c 0.7113,-0.5259 0.6878,-1.2327 0.6878,-1.2327 l 1.4054,-12.8735 c 0,0 0.1753,-0.685 -0.4057,-1.352 l -2.4796,-3.0873 c -0.5314,-0.6616 -1.2381,-0.6381 -1.2381,-0.6381 l 0.01,-0.05 -11.78,-1.286 -0.01,0.05 c 0,0 -0.685,-0.1754 -1.3466,0.356 l -3.0873,2.4796 c -0.6616,0.5313 -0.6878,1.2326 -0.6878,1.2326 l -0.9767,8.9468 c -0.011,0.1 -0.066,0.1437 -0.1763,0.2323 l -0.8875,0.7582 c -0.2151,0.1274 -0.4139,0.1057 -0.4139,0.1057 l -3.7279,-0.407 c 0,0 -0.1988,-0.022 -0.3813,-0.1925 l -0.703,-0.9318 c -0.089,-0.1103 -0.1329,-0.1654 -0.122,-0.2648 l 0.6837,-6.2628 2.2367,0.2442 c 0.3976,0.043 0.7284,-0.2223 0.7718,-0.6199 l 0.6403,-5.8652 c 0.043,-0.3976 -0.2169,-0.7781 -0.6145,-0.8215 l -4.8214,-0.5264 c -0.05,-0.01 -0.1048,0.039 -0.1048,0.039 0,0 -0.685,-0.1754 -1.3466,0.356 l -3.0873,2.4796 c -0.6616,0.5313 -0.6878,1.2326 -0.6878,1.2326 l -1.4054,12.8735 c 0,0 -0.1257,0.6905 0.4057,1.352 l 2.4796,3.0874 c 0.5313,0.6615 1.2326,0.6878 1.2326,0.6878 l 11.78,1.286 c 0,0 0.6905,0.1256 1.3521,-0.4057 l 3.0873,-2.4796 c 0.7113,-0.5259 0.6878,-1.2327 0.6878,-1.2327 l 1.0147,-9.2947 0.7718,-0.6199 c 0.2205,-0.1771 0.4139,-0.1057 0.4139,-0.1057 l -0.044,-0.055 4.026,0.4395 c 0,0 0.1989,0.022 0.376,0.2423 l 0.7084,0.8821 c 0.1329,0.1654 0.122,0.2648 0.1112,0.3642 l -0.6729,6.1634 -2.4852,-0.2713 c -0.3977,-0.043 -0.7284,0.2222 -0.7718,0.6199 l -0.6403,5.8651 c -0.043,0.3976 0.2168,0.7781 0.6145,0.8215 l 5.1195,0.5589 0.055,-0.044 -0.01,0.05 z"
         inkscape:connector-curvature="0" /><path
         id="path4166"
         d="m 1445.6141,1130.0368 2.7951,-19.8037 c 0.056,-0.3961 -0.2417,-0.7916 -0.6378,-0.8475 l -5.8421,-0.8245 c -0.3961,-0.056 -0.742,0.2487 -0.7979,0.6448 l -0.8875,6.2876 -26.636,-3.7595 c -0.3536,6e-4 -0.643,0.2628 -0.6919,0.6093 l -0.8246,5.8421 c -0.049,0.3466 0.1567,0.6786 0.4963,0.777 l 26.636,3.7595 -0.8875,6.2877 c -0.056,0.396 0.1922,0.7845 0.5883,0.8404 l 5.8421,0.8246 c 0.3961,0.056 0.7916,-0.2417 0.8475,-0.6378 z"
         inkscape:connector-curvature="0" /><path
         id="path4168"
         d="m 1443.4414,1142.9953 0.9621,-5.8717 c 0.065,-0.3948 -0.1828,-0.7393 -0.5776,-0.804 l -32.9604,-5.4009 c -0.3947,-0.065 -0.7393,0.1828 -0.804,0.5776 l -0.9621,5.8717 c -0.065,0.3947 0.1828,0.7393 0.5776,0.8039 l 32.9604,5.401 c 0.3947,0.065 0.7393,-0.1829 0.804,-0.5776 z"
         inkscape:connector-curvature="0" /><path
         id="path4170"
         d="m 1436.6953,1175.8675 c 0.049,0.01 0.058,-0.04 0.058,-0.04 l 0.098,0.019 c 0.2058,-0.012 0.3719,-0.082 0.4982,-0.2105 0,0 0.01,-0.049 0.058,-0.04 0.01,-0.049 0.019,-0.098 0.077,-0.138 l 1.1887,-6.2378 c 0.075,-0.3929 -0.075,-0.6759 -0.4981,-0.8584 l -17.976,-8.7701 -4.0509,-1.1791 4.2287,0.2459 19.8012,-0.8076 c 0.421,-0.072 0.704,-0.2221 0.7789,-0.615 l 1.1887,-6.2378 c -0.04,-0.058 -0.03,-0.1076 -0.021,-0.1567 -0.04,-0.058 -0.04,-0.058 -0.03,-0.1076 -0.07,-0.166 -0.1988,-0.2923 -0.3859,-0.3789 l -0.1473,-0.028 -32.5569,-7.5785 c -0.3929,-0.075 -0.7532,0.2128 -0.8187,0.5566 l -1.1138,5.8449 c -0.075,0.3929 0.1637,0.7437 0.5566,0.8186 l 12.3796,2.6136 -13.236,1.3461 c -0.3812,0.131 -0.7906,0.4092 -0.8654,0.8022 l -0.7488,3.9293 c -0.075,0.3929 0.2034,0.8022 0.5191,1.0151 l 11.8039,6.1687 -12.4638,-2.1716 c -0.3929,-0.075 -0.7531,0.2128 -0.828,0.6057 l -1.1045,5.7957 c -0.075,0.393 0.1637,0.7438 0.5566,0.8187 l 33.053,4.9753 z"
         inkscape:connector-curvature="0" /><path
         id="path4172"
         d="m 1426.5942,1203.6606 c 0,0 0.6606,0.2522 1.3784,-0.2004 l 3.3605,-2.1608 c 0.7665,-0.4416 0.8237,-1.1464 0.8237,-1.1464 l 2.8504,-12.5811 c 0,0 0.2522,-0.6606 -0.2491,-1.3894 l -2.1121,-3.3495 c -0.4526,-0.7177 -1.1463,-0.8236 -1.1463,-0.8236 l -25.016,-5.6678 c 0,0 -0.6717,-0.2034 -1.3894,0.2492 l -3.3495,2.112 c -0.7178,0.4526 -0.8237,1.1464 -0.8237,1.1464 l -2.8615,12.6299 c 0,0 -0.1924,0.6229 0.2602,1.3406 l 2.1011,3.3983 c 0.4526,0.7177 1.1574,0.7749 1.1574,0.7749 l 25.0159,5.6677 z m -0.7219,-9.0328 c -0.011,0.049 -0.044,0.1951 -0.2236,0.3082 l -0.957,0.6035 c -0.2393,0.1508 -0.4233,0.058 -0.4233,0.058 l -17.4087,-3.9442 c -0.098,-0.022 -0.1951,-0.044 -0.3082,-0.2237 l -0.5281,-0.8373 1.2816,-5.6567 0.8374,-0.528 c 0.1684,-0.064 0.277,-0.091 0.3745,-0.069 l 17.4088,3.9443 c 0,0 0.195,0.044 0.3569,0.2346 l 0.5924,1.0058 c 0.1242,0.1307 0.091,0.277 0.08,0.3257 l -1.0828,4.7789 z"
         inkscape:connector-curvature="0" /><path
         id="path4174"
         d="m 1424.0763,1232.4117 1.4986,-5.7582 c 0.088,-0.3387 -0.114,-0.753 -0.5011,-0.8537 l -19.2101,-4.9996 0.5575,0.042 20.3401,-1.5261 0.013,-0.048 c 0.4607,0.017 0.7656,-0.1624 0.8537,-0.5011 l 1.8765,-7.2098 c 0.1007,-0.3871 -0.114,-0.753 -0.5012,-0.8538 l -32.4683,-8.4502 c -0.3388,-0.088 -0.753,0.114 -0.8538,0.5011 l -1.4986,5.7582 c -0.088,0.3387 0.1624,0.7656 0.5011,0.8537 l 16.1616,4.2063 -17.698,1.6971 c -0.3765,0.057 -0.8034,0.3076 -0.9041,0.6947 l -1.9898,7.6453 c -0.1007,0.3871 0.1624,0.7656 0.5012,0.8537 l 32.4683,8.4502 c 0.3871,0.1008 0.753,-0.114 0.8538,-0.5011 z"
         inkscape:connector-curvature="0" /><path
         id="path4176"
         d="m 1420.2349,1245.1313 1.6318,-5.7218 c 0.1097,-0.3847 -0.097,-0.7555 -0.4812,-0.8652 l -32.1194,-9.1598 c -0.3847,-0.1097 -0.7554,0.097 -0.8651,0.4811 l -1.6318,5.7219 c -0.1097,0.3847 0.097,0.7554 0.4812,0.8651 l 32.1194,9.1599 c 0.3847,0.1097 0.7554,-0.096 0.8651,-0.4812 z"
         inkscape:connector-curvature="0" /></g></g></svg>