<?xml version="1.0" encoding="UTF-8" standalone="no"?>
<!-- Generator: Adobe Illustrator 17.0.0, SVG Export Plug-In . SVG Version: 6.00 Build 0)  -->

<svg
   xmlns:dc="http://purl.org/dc/elements/1.1/"
   xmlns:cc="http://creativecommons.org/ns#"
   xmlns:rdf="http://www.w3.org/1999/02/22-rdf-syntax-ns#"
   xmlns:svg="http://www.w3.org/2000/svg"
   xmlns="http://www.w3.org/2000/svg"
   xmlns:sodipodi="http://sodipodi.sourceforge.net/DTD/sodipodi-0.dtd"
   xmlns:inkscape="http://www.inkscape.org/namespaces/inkscape"
   version="1.1"
   id="Layer_1"
   x="0px"
   y="0px"
   width="629.00854"
   height="183.3797"
   viewBox="0 0 629.00854 183.3797"
   xml:space="preserve"
   inkscape:version="0.91 r13725"
   sodipodi:docname="il_giappone_path.svg"><metadata
     id="metadata61"><rdf:RDF><cc:Work
         rdf:about=""><dc:format>image/svg+xml</dc:format><dc:type
           rdf:resource="http://purl.org/dc/dcmitype/StillImage" /><dc:title></dc:title></cc:Work></rdf:RDF></metadata><defs
     id="defs59" /><sodipodi:namedview
     pagecolor="#ffffff"
     bordercolor="#666666"
     borderopacity="1"
     objecttolerance="10"
     gridtolerance="10"
     guidetolerance="10"
     inkscape:pageopacity="0"
     inkscape:pageshadow="2"
     inkscape:window-width="1920"
     inkscape:window-height="1033"
     id="namedview57"
     showgrid="false"
     showguides="true"
     inkscape:guide-bbox="true"
     inkscape:zoom="0.35355339"
     inkscape:cx="-196.7511"
     inkscape:cy="-398.61688"
     inkscape:window-x="-2"
     inkscape:window-y="-3"
     inkscape:window-maximized="1"
     inkscape:current-layer="g5"
     fit-margin-top="0"
     fit-margin-left="0"
     fit-margin-right="0"
     fit-margin-bottom="0"><sodipodi:guide
       position="611.55427,99.2"
       orientation="0,1"
       id="guide4403" /></sodipodi:namedview><style
     type="text/css"
     id="style3">
	.st0{fill:#62676C;}
	.st1{fill:#50555B;}
	.st2{fill:#393D42;}
	.st3{fill:none;stroke:#989CA3;stroke-width:3;stroke-linecap:round;stroke-linejoin:round;stroke-miterlimit:10;}
	.st4{fill:#FFF7E4;}
	.st5{fill:#FFFFFF;}
	.st6{fill:#E9EFD7;}
	.st7{fill:#E8ECD5;}
</style><g
     id="g5"
     transform="translate(-232.94573,-12.820301)"><g
       id="g7"
       transform="matrix(0.58463474,0,0,1,227.3917,0)"><g
         id="g9"><path
           class="st6"
           d="m 1065.9,192.6 c -62.3,-9.6 -124.8,-17.6 -187.6,-24 3,-29.9 5.9,-59.8 8.9,-89.8 64.4,6.5 128.6,14.7 192.6,24.6 -12.5,14.2 -24.9,28.5 -37.2,42.9 7.9,15.5 15.6,30.9 23.3,46.3 z"
           id="path11"
           inkscape:connector-curvature="0"
           style="fill:#e9efd7" /><path
           class="st5"
           d="m 1070.8,196.2 c -65,-10.2 -130.1,-18.5 -195.5,-25.1 3.1,-31.8 6.3,-63.5 9.4,-95.3 67.2,6.7 134.1,15.3 200.7,25.7 -13.3,15 -26.4,30 -39.4,45.2 8.4,16.5 16.6,33 24.8,49.5 z m -189.4,-30 c 60.1,6.1 119.9,13.8 179.6,22.9 -7.1,-14.4 -14.4,-28.8 -21.7,-43.1 11.6,-13.6 23.3,-27.1 35.1,-40.5 C 1013,96.1 951.6,88.3 889.9,82 c -2.9,28 -5.7,56.1 -8.5,84.2 z"
           id="path13"
           inkscape:connector-curvature="0"
           style="fill:#ffffff" /></g><g
         id="g15"><path
           class="st6"
           d="m 15.4,103.5 c 64,-9.9 128.2,-18.1 192.6,-24.6 3,29.9 5.9,59.8 8.9,89.8 -62.7,6.4 -125.2,14.3 -187.6,24 7.4,-17.4 14.8,-34.7 22.4,-51.9 -12,-12.6 -24.1,-24.9 -36.3,-37.3 z"
           id="path17"
           inkscape:connector-curvature="0"
           style="fill:#e9efd7" /><path
           class="st5"
           d="m 220,171.2 c -65.3,6.6 -130.3,14.9 -195.2,25 7.7,-18.4 15.6,-36.7 23.6,-54.9 C 35.5,128 22.5,114.8 9.5,101.6 76.3,91.1 143.3,82.5 210.6,75.8 c 3.1,31.8 6.3,63.6 9.4,95.4 z M 33.9,189.1 c 59.8,-9.2 119.8,-16.8 179.9,-23 C 211,138 208.2,110 205.4,81.9 143.8,88.2 82.5,96 21.3,105.4 c 11.4,11.5 22.6,23 33.8,34.7 -7.1,16.3 -14.2,32.6 -21.2,49 z"
           id="path19"
           inkscape:connector-curvature="0"
           style="fill:#ffffff" /></g><g
         id="g21"><path
           class="st6"
           d="M 995.4,147.9 C 701.6,109.3 404.4,108.8 110.5,146.5 106.1,112.4 101.6,78.4 97.2,44.3 400,5.4 706.4,5.9 1009.1,45.8 c -4.6,34 -9.1,68.1 -13.7,102.1 z"
           id="path23"
           inkscape:connector-curvature="0"
           style="fill:#e9efd7" /><path
           class="st5"
           d="M 997.9,151.1 C 702.5,112 403.6,111.5 108.1,149.7 103.4,113.8 98.7,77.9 94,42 399,2.6 707.5,3.1 1012.4,43.5 c -4.9,35.8 -9.7,71.7 -14.5,107.6 z M 113,143.4 c 292.3,-37.2 587.8,-36.8 880,1.4 4.3,-32.2 8.6,-64.4 12.8,-96.7 C 705.2,8.9 401.2,8.4 100.5,46.7 c 4.1,32.2 8.3,64.5 12.5,96.7 z"
           id="path25"
           inkscape:connector-curvature="0"
           style="fill:#ffffff" /></g></g><g
       transform="matrix(-0.10827684,-0.99412078,0.99412078,-0.10827684,-702.92699,1968.5999)"
       inkscape:transform-center-x="-5.8554753"
       inkscape:transform-center-y="-1241.4629"
       style="font-style:normal;font-variant:normal;font-weight:bold;font-stretch:normal;font-size:50px;line-height:125%;font-family:Liberator;-inkscape-font-specification:'Liberator, Bold';text-align:start;letter-spacing:0px;word-spacing:0px;writing-mode:lr-tb;text-anchor:start;fill:#62676c;fill-opacity:1;stroke:none;stroke-width:1px;stroke-linecap:butt;stroke-linejoin:miter;stroke-opacity:1"
       id="text4409"><path
         d="m 1775.3694,1324.1362 0.031,-5.9499 c 0,-0.4 -0.2964,-0.7015 -0.6964,-0.7036 l -33.3995,-0.172 c -0.4,0 -0.7016,0.2964 -0.7036,0.6964 l -0.031,5.9499 c 0,0.4 0.2964,0.7015 0.6964,0.7036 l 33.3996,0.172 c 0.4,0 0.7015,-0.2964 0.7036,-0.6964 z"
         id="path3369"
         inkscape:connector-curvature="0" /><path
         d="m 1747.4489,1350.9671 0.2913,-13.3968 26.8937,0.585 c 0.301,-0.043 0.5575,-0.338 0.5651,-0.6879 l 0.1283,-5.8986 c 0.01,-0.3499 -0.2358,-0.6553 -0.5347,-0.7118 l 0,-0.05 -33.542,-0.7296 c -0.4,-0.01 -0.7075,0.3347 -0.7162,0.7346 l -0.4349,19.9953 c -0.01,0.3999 0.2836,0.7564 0.6835,0.7651 l 5.9486,0.1293 c 0.3499,0.01 0.7075,-0.3347 0.7162,-0.7346 z"
         id="path3371"
         inkscape:connector-curvature="0" /><path
         d="m 1751.0988,1389.4149 -4.3924,-0.2586 c -0.1,-0.01 -0.1968,-0.062 -0.3406,-0.1704 l -0.6577,-0.7399 0.3439,-5.8399 0.737,-0.6077 c 0.1585,-0.1409 0.2583,-0.1351 0.3611,-0.1791 l 17.8192,1.0491 c 0,0 0.1996,0.012 0.3376,0.2203 l 0.8015,0.8485 c 0.1409,0.1586 0.135,0.2584 0.1292,0.3583 l -0.2851,4.8416 c -0.01,0.1 -0.015,0.2495 -0.1703,0.3406 l -0.8985,0.7985 c -0.1585,0.1409 -0.3582,0.1292 -0.3582,0.1292 l -1.2978,-0.076 c -0.3493,-0.021 -0.7164,0.2583 -0.7399,0.6576 l -0.3468,5.8898 c -0.024,0.3993 0.3054,0.7693 0.6548,0.7899 l 5.2908,0.3115 0.053,-0.047 0,0.05 c 0,0 0.6959,0.091 1.3301,-0.4726 l 2.9597,-2.6306 c 0.6342,-0.5637 0.6255,-1.2654 0.6255,-1.2654 l 0.7611,-12.9276 c 0,0 0.091,-0.6959 -0.4726,-1.3301 l -2.6306,-2.9598 c -0.5637,-0.6342 -1.2684,-0.5755 -1.2684,-0.5755 l 0,-0.05 -25.5557,-1.5046 -0.053,0.047 c 0,0 -0.6929,-0.1409 -1.3271,0.4228 l -2.9597,2.6305 c -0.6342,0.5637 -0.6255,1.2655 -0.6255,1.2655 l -0.7611,12.9276 c 0,0 -0.091,0.6958 0.4726,1.3301 l 2.6306,2.9597 c 0.2819,0.3171 0.6224,0.4874 0.8691,0.552 l 0,0.05 15.1738,0.8934 c 0.3993,0.024 0.7193,-0.3082 0.7428,-0.7075 l 0.5819,-9.8829 c 0.023,-0.3993 -0.2583,-0.7165 -0.6576,-0.74 l -5.9398,-0.3497 c -0.3494,-0.021 -0.7164,0.2584 -0.7399,0.6577 l -0.1939,3.2943 z"
         id="path3373"
         inkscape:connector-curvature="0" /><path
         d="m 1771.6519,1410.7731 0.4503,-5.9329 c 0.03,-0.3988 -0.2462,-0.7207 -0.645,-0.751 l -33.3042,-2.5276 c -0.3989,-0.03 -0.7207,0.2461 -0.751,0.645 l -0.4503,5.9329 c -0.03,0.3989 0.2462,0.7207 0.645,0.751 l 33.3042,2.5277 c 0.3989,0.03 0.7207,-0.2462 0.751,-0.6451 z"
         id="path3375"
         inkscape:connector-curvature="0" /><path
         d="m 1769.0859,1433.2066 0.05,0 c 0.4621,-0.1073 0.7297,-0.2831 0.7624,-0.6315 l 0.2056,-2.1904 0.1449,-1.5432 0.2056,-2.1904 c 0.033,-0.3485 -0.2022,-0.5212 -0.6315,-0.7624 l -0.05,0 -32.4281,-12.9877 c -0.3391,-0.1323 -0.7297,0.2831 -0.767,0.6813 l -0.5328,5.6751 c -0.037,0.3982 0.2784,0.7794 0.6128,0.9614 l 3.9202,1.5733 -0.9393,10.006 -4.1445,0.8163 c -0.3624,0.1166 -0.7436,0.4323 -0.781,0.8306 l -0.5327,5.675 c -0.037,0.3983 0.269,0.879 0.6268,0.8122 11.4096,-2.2435 22.869,-4.4822 34.2786,-6.7257 z m -21.9744,-8.7923 9.9201,3.9947 -10.4856,2.0289 0.5655,-6.0236 z"
         id="path3377"
         inkscape:connector-curvature="0" /><path
         d="m 1761.2394,1469.0745 c 0,0 0.6893,0.1318 1.3556,-0.3937 l 3.1587,-2.4464 c 0.6662,-0.5255 0.649,-1.2324 0.649,-1.2324 l 1.8647,-15.7903 c 0.047,-0.3972 -0.2158,-0.7304 -0.6131,-0.7773 l -33.3184,-3.9346 c -0.3476,-0.041 -0.7304,0.2158 -0.7773,0.613 l -0.6919,5.8593 c -0.047,0.3973 0.2596,0.7859 0.6072,0.8269 l 12.0661,1.425 -1.0848,9.1861 c 0,0 -0.1814,0.6835 0.3441,1.3497 l 2.5019,3.1149 c 0.5255,0.6662 1.2266,0.6987 1.2266,0.6987 l 0.01,-0.05 0.044,0.055 12.662,1.4953 z m -1.0512,-14.1207 -0.604,5.1145 c 0,0 -0.023,0.1986 -0.1958,0.3796 l -0.9438,0.7445 c -0.1666,0.1313 -0.3652,0.1079 -0.3652,0.1079 l -4.6676,-0.5512 c 0,0 -0.1986,-0.024 -0.3796,-0.1959 l -0.6948,-0.938 c -0.1752,-0.222 -0.1021,-0.4148 -0.1021,-0.4148 l 0.604,-5.1144 7.3489,0.8678 z"
         id="path3379"
         inkscape:connector-curvature="0" /><path
         d="m 1757.4604,1496.3536 c 0,0 0.6862,0.1472 1.3641,-0.3632 l 3.213,-2.3746 c 0.6779,-0.5104 0.6766,-1.2175 0.6766,-1.2175 l 2.2198,-15.7443 c 0.056,-0.3961 -0.1994,-0.735 -0.5954,-0.7909 l -33.2215,-4.6839 c -0.3465,-0.049 -0.735,0.1993 -0.7908,0.5954 l -0.8237,5.8422 c -0.056,0.3961 0.2418,0.7916 0.5884,0.8404 l 12.031,1.6963 -1.2914,9.1594 c 0,0 -0.1967,0.6792 0.3136,1.3571 l 2.4312,3.1704 c 0.5104,0.6779 1.2105,0.7262 1.2105,0.7262 l 0.01,-0.05 0.043,0.056 12.6251,1.7801 z m -0.7329,-14.1409 -0.719,5.0996 c 0,0 -0.028,0.198 -0.2044,0.3751 l -0.9604,0.7231 c -0.1694,0.1275 -0.3675,0.1 -0.3675,0.1 l -4.6539,-0.6561 c 0,0 -0.1981,-0.028 -0.3752,-0.2044 l -0.6735,-0.9534 c -0.1701,-0.2259 -0.093,-0.417 -0.093,-0.417 l 0.719,-5.0996 7.3276,1.0331 z"
         id="path3381"
         inkscape:connector-curvature="0" /><path
         d="m 1752.9344,1524.0315 c 0,0 0.6746,0.2121 1.3639,-0.2827 l 3.2249,-2.3585 c 0.7386,-0.4867 0.7534,-1.1937 0.7534,-1.1937 l 2.0908,-12.7294 c 0,0 0.2121,-0.6746 -0.3321,-1.372 l -2.3091,-3.2168 c -0.4949,-0.6893 -1.1937,-0.7534 -1.1937,-0.7534 l -25.3109,-4.1572 c 0,0 -0.6826,-0.1628 -1.3719,0.332 l -3.2168,2.3092 c -0.6893,0.4948 -0.7534,1.1937 -0.7534,1.1937 l -2.0989,12.7788 c 0,0 -0.1547,0.6333 0.3401,1.3226 l 2.3011,3.2661 c 0.4948,0.6893 1.2018,0.7041 1.2018,0.7041 l 25.3108,4.1572 z m -1.2623,-8.9732 c -0.01,0.049 -0.032,0.1973 -0.2048,0.321 l -0.919,0.6598 c -0.2298,0.1649 -0.4191,0.083 -0.4191,0.083 l -17.614,-2.8931 c -0.099,-0.016 -0.1973,-0.032 -0.321,-0.2047 l -0.5773,-0.8042 0.94,-5.7233 0.8042,-0.5773 c 0.1642,-0.074 0.271,-0.1075 0.3697,-0.091 l 17.614,2.893 c 0,0 0.1973,0.032 0.3704,0.2129 l 0.6517,0.9684 c 0.1318,0.123 0.1075,0.271 0.099,0.3203 l -0.7941,4.8353 z"
         id="path3383"
         inkscape:connector-curvature="0" /><path
         d="m 1752.4083,1552.6279 1.1009,-5.8472 c 0.065,-0.344 -0.1653,-0.7435 -0.5584,-0.8175 l -19.5073,-3.6725 0.559,0 20.1879,-2.9152 0.01,-0.049 c 0.4608,-0.015 0.7527,-0.2145 0.8175,-0.5584 l 1.3783,-7.3214 c 0.074,-0.3931 -0.1653,-0.7434 -0.5584,-0.8174 l -32.9707,-6.2073 c -0.344,-0.065 -0.7435,0.1653 -0.8175,0.5584 l -1.1008,5.8472 c -0.065,0.344 0.2144,0.7527 0.5584,0.8175 l 16.4117,3.0897 -17.5403,2.905 c -0.3717,0.083 -0.7804,0.3618 -0.8544,0.7549 l -1.4617,7.7636 c -0.074,0.3931 0.2145,0.7527 0.5584,0.8174 l 32.9708,6.2073 c 0.3931,0.074 0.7434,-0.1653 0.8174,-0.5584 z"
         id="path3385"
         inkscape:connector-curvature="0" /><path
         d="m 1742.2511,1565.2083 -2.3919,11.2996 c -0.072,0.3424 0.1485,0.747 0.5398,0.8298 l 5.821,1.2322 c 0.3914,0.083 0.7574,-0.1974 0.8298,-0.5398 l 3.7692,-17.8055 c 0.083,-0.3913 -0.1486,-0.7469 -0.5399,-0.8298 l -32.8226,-6.948 c -0.3914,-0.083 -0.747,0.1485 -0.8298,0.5398 l -3.7692,17.8055 c -0.072,0.3424 0.1486,0.7469 0.5399,0.8298 l 5.821,1.2322 c 0.3913,0.083 0.7573,-0.1975 0.8298,-0.5399 l 2.3919,-11.2996 6.3102,1.3358 -1.8328,8.6581 c -0.083,0.3914 0.1485,0.747 0.5399,0.8298 l 5.821,1.2322 c 0.3913,0.083 0.7469,-0.1485 0.8298,-0.5398 l 1.8328,-8.6582 6.3101,1.3358 z"
         id="path3387"
         inkscape:connector-curvature="0" /></g></g></svg>