<?xml version="1.0" encoding="UTF-8" standalone="no"?>
<!-- Generator: Adobe Illustrator 17.0.0, SVG Export Plug-In . SVG Version: 6.00 Build 0)  -->

<svg
   xmlns:dc="http://purl.org/dc/elements/1.1/"
   xmlns:cc="http://creativecommons.org/ns#"
   xmlns:rdf="http://www.w3.org/1999/02/22-rdf-syntax-ns#"
   xmlns:svg="http://www.w3.org/2000/svg"
   xmlns="http://www.w3.org/2000/svg"
   xmlns:sodipodi="http://sodipodi.sourceforge.net/DTD/sodipodi-0.dtd"
   xmlns:inkscape="http://www.inkscape.org/namespaces/inkscape"
   version="1.1"
   id="Layer_1"
   x="0px"
   y="0px"
   width="547.52069"
   height="203.3797"
   viewBox="0 0 547.52069 203.3797"
   xml:space="preserve"
   inkscape:version="0.91 r13725"
   sodipodi:docname="il_matrimonio_path.svg"><metadata
     id="metadata61"><rdf:RDF><cc:Work
         rdf:about=""><dc:format>image/svg+xml</dc:format><dc:type
           rdf:resource="http://purl.org/dc/dcmitype/StillImage" /><dc:title></dc:title></cc:Work></rdf:RDF></metadata><defs
     id="defs59" /><sodipodi:namedview
     pagecolor="#ffffff"
     bordercolor="#666666"
     borderopacity="1"
     objecttolerance="10"
     gridtolerance="10"
     guidetolerance="10"
     inkscape:pageopacity="0"
     inkscape:pageshadow="2"
     inkscape:window-width="1920"
     inkscape:window-height="1033"
     id="namedview57"
     showgrid="false"
     showguides="true"
     inkscape:guide-bbox="true"
     inkscape:zoom="0.7071068"
     inkscape:cx="-190.23053"
     inkscape:cy="-236.17992"
     inkscape:window-x="-2"
     inkscape:window-y="-3"
     inkscape:window-maximized="1"
     inkscape:current-layer="g5"
     fit-margin-top="10"
     fit-margin-left="10"
     fit-margin-right="10"
     fit-margin-bottom="10"><sodipodi:guide
       position="556.45367,107.50865"
       orientation="0,1"
       id="guide4403" /></sodipodi:namedview><style
     type="text/css"
     id="style3">
	.st0{fill:#62676C;}
	.st1{fill:#50555B;}
	.st2{fill:#393D42;}
	.st3{fill:none;stroke:#989CA3;stroke-width:3;stroke-linecap:round;stroke-linejoin:round;stroke-miterlimit:10;}
	.st4{fill:#FFF7E4;}
	.st5{fill:#FFFFFF;}
	.st6{fill:#E9EFD7;}
	.st7{fill:#E8ECD5;}
</style><g
     id="g5"
     transform="translate(-273.68967,-2.8203008)"><g
       id="g7"
       transform="matrix(0.49030646,0,0,1,279.03176,0)"><g
         id="g9"><path
           class="st6"
           d="m 1065.9,192.6 c -62.3,-9.6 -124.8,-17.6 -187.6,-24 3,-29.9 5.9,-59.8 8.9,-89.8 64.4,6.5 128.6,14.7 192.6,24.6 -12.5,14.2 -24.9,28.5 -37.2,42.9 7.9,15.5 15.6,30.9 23.3,46.3 z"
           id="path11"
           inkscape:connector-curvature="0"
           style="fill:#e9efd7" /><path
           class="st5"
           d="m 1070.8,196.2 c -65,-10.2 -130.1,-18.5 -195.5,-25.1 3.1,-31.8 6.3,-63.5 9.4,-95.3 67.2,6.7 134.1,15.3 200.7,25.7 -13.3,15 -26.4,30 -39.4,45.2 8.4,16.5 16.6,33 24.8,49.5 z m -189.4,-30 c 60.1,6.1 119.9,13.8 179.6,22.9 -7.1,-14.4 -14.4,-28.8 -21.7,-43.1 11.6,-13.6 23.3,-27.1 35.1,-40.5 C 1013,96.1 951.6,88.3 889.9,82 c -2.9,28 -5.7,56.1 -8.5,84.2 z"
           id="path13"
           inkscape:connector-curvature="0"
           style="fill:#ffffff" /></g><g
         id="g15"><path
           class="st6"
           d="m 15.4,103.5 c 64,-9.9 128.2,-18.1 192.6,-24.6 3,29.9 5.9,59.8 8.9,89.8 -62.7,6.4 -125.2,14.3 -187.6,24 7.4,-17.4 14.8,-34.7 22.4,-51.9 -12,-12.6 -24.1,-24.9 -36.3,-37.3 z"
           id="path17"
           inkscape:connector-curvature="0"
           style="fill:#e9efd7" /><path
           class="st5"
           d="m 220,171.2 c -65.3,6.6 -130.3,14.9 -195.2,25 7.7,-18.4 15.6,-36.7 23.6,-54.9 C 35.5,128 22.5,114.8 9.5,101.6 76.3,91.1 143.3,82.5 210.6,75.8 c 3.1,31.8 6.3,63.6 9.4,95.4 z M 33.9,189.1 c 59.8,-9.2 119.8,-16.8 179.9,-23 C 211,138 208.2,110 205.4,81.9 143.8,88.2 82.5,96 21.3,105.4 c 11.4,11.5 22.6,23 33.8,34.7 -7.1,16.3 -14.2,32.6 -21.2,49 z"
           id="path19"
           inkscape:connector-curvature="0"
           style="fill:#ffffff" /></g><g
         id="g21"><path
           class="st6"
           d="M 995.4,147.9 C 701.6,109.3 404.4,108.8 110.5,146.5 106.1,112.4 101.6,78.4 97.2,44.3 400,5.4 706.4,5.9 1009.1,45.8 c -4.6,34 -9.1,68.1 -13.7,102.1 z"
           id="path23"
           inkscape:connector-curvature="0"
           style="fill:#e9efd7" /><path
           class="st5"
           d="M 997.9,151.1 C 702.5,112 403.6,111.5 108.1,149.7 103.4,113.8 98.7,77.9 94,42 399,2.6 707.5,3.1 1012.4,43.5 c -4.9,35.8 -9.7,71.7 -14.5,107.6 z M 113,143.4 c 292.3,-37.2 587.8,-36.8 880,1.4 4.3,-32.2 8.6,-64.4 12.8,-96.7 C 705.2,8.9 401.2,8.4 100.5,46.7 c 4.1,32.2 8.3,64.5 12.5,96.7 z"
           id="path25"
           inkscape:connector-curvature="0"
           style="fill:#ffffff" /></g></g><g
       transform="matrix(-0.18164534,-0.98336411,0.98336411,-0.18164534,-259.34438,1616.9485)"
       inkscape:transform-center-x="-5.9408639"
       inkscape:transform-center-y="-844.81288"
       style="font-style:normal;font-variant:normal;font-weight:bold;font-stretch:normal;font-size:50px;line-height:125%;font-family:Liberator;-inkscape-font-specification:'Liberator, Bold';text-align:start;letter-spacing:0px;word-spacing:0px;writing-mode:lr-tb;text-anchor:start;fill:#62676c;fill-opacity:1;stroke:none;stroke-width:1px;stroke-linecap:butt;stroke-linejoin:miter;stroke-opacity:1"
       id="text4409"><path
         d="m 1407.1189,930.68617 0.044,-5.94983 c 0,-0.39999 -0.2948,-0.70222 -0.6948,-0.7052 l -33.3991,-0.24877 c -0.4,-0.003 -0.7022,0.29477 -0.7052,0.69476 l -0.044,5.94984 c 0,0.39999 0.2948,0.70221 0.6948,0.70519 l 33.399,0.24878 c 0.4,0.003 0.7023,-0.29478 0.7052,-0.69477 z"
         id="path4150"
         inkscape:connector-curvature="0" /><path
         d="m 1378.9876,957.50369 0.4215,-13.39337 26.8867,0.84613 c 0.3014,-0.0405 0.5607,-0.33253 0.5717,-0.68235 l 0.1856,-5.89708 c 0.011,-0.34983 -0.2294,-0.65755 -0.5277,-0.71696 l 0,-0.05 -33.5334,-1.0553 c -0.3998,-0.0126 -0.7107,0.32781 -0.7233,0.72761 l -0.6291,19.9901 c -0.013,0.3998 0.2763,0.75907 0.6761,0.77165 l 5.9471,0.18715 c 0.3498,0.011 0.7106,-0.32781 0.7232,-0.72761 z"
         id="path4152"
         inkscape:connector-curvature="0" /><path
         d="m 1401.996,1009.7817 c 0.05,0 0.054,-0.045 0.054,-0.045 l 0.1,0.01 c 0.2036,-0.032 0.3618,-0.1187 0.4746,-0.2593 0,0 0,-0.05 0.054,-0.045 0,-0.05 0.01,-0.1 0.063,-0.1451 l 0.558,-6.3254 c 0.035,-0.3985 -0.1422,-0.6651 -0.5816,-0.8042 l -18.7641,-6.92558 -4.1486,-0.7675 4.2321,-0.17883 19.6208,-2.78673 c 0.4116,-0.11427 0.6782,-0.29153 0.7134,-0.68998 l 0.5579,-6.32544 c -0.045,-0.0542 -0.041,-0.10401 -0.037,-0.15381 -0.045,-0.0542 -0.045,-0.0542 -0.041,-0.10401 -0.086,-0.15821 -0.2271,-0.271 -0.4219,-0.33838 l -0.1494,-0.0132 -33.1522,-4.27959 c -0.3985,-0.0352 -0.7281,0.28714 -0.7588,0.63578 l -0.5228,5.92699 c -0.035,0.39845 0.2373,0.72365 0.6357,0.7588 l 12.5791,1.36057 -13.0345,2.66498 c -0.3663,0.16847 -0.7457,0.48636 -0.7808,0.88481 l -0.3515,3.98453 c -0.035,0.39845 0.2828,0.77785 0.6182,0.95803 l 12.3624,4.95546 -12.6186,-0.9123 c -0.3985,-0.035 -0.7281,0.2871 -0.7632,0.6856 l -0.5185,5.8772 c -0.035,0.3984 0.2374,0.7236 0.6358,0.7588 l 33.3851,1.6398 z"
         id="path4154"
         inkscape:connector-curvature="0" /><path
         d="m 1399.2623,1033.1415 0.05,0.01 c 0.4654,-0.092 0.7386,-0.259 0.7826,-0.6062 l 0.2772,-2.1825 0.1952,-1.5377 0.2771,-2.1824 c 0.044,-0.3472 -0.185,-0.5275 -0.6063,-0.7826 l -0.05,-0.01 -31.9862,-14.0408 c -0.3346,-0.1433 -0.7385,0.259 -0.7888,0.6559 l -0.718,5.6546 c -0.05,0.3968 0.2527,0.7881 0.5811,0.981 l 3.8665,1.7005 -1.2658,9.97 -4.1689,0.6803 c -0.3661,0.1047 -0.7574,0.4078 -0.8078,0.8047 l -0.718,5.6546 c -0.05,0.3968 0.2402,0.8873 0.6,0.8322 11.4768,-1.8693 23.0033,-3.7323 34.4801,-5.6016 z m -21.6752,-9.5059 9.7842,4.3168 -10.5463,1.685 0.7621,-6.0018 z"
         id="path4156"
         inkscape:connector-curvature="0" /><path
         d="m 1394.5374,1068.7407 3.2002,-19.7423 c 0.064,-0.3949 -0.2255,-0.7964 -0.6203,-0.8604 l -5.824,-0.944 c -0.3948,-0.064 -0.747,0.2335 -0.811,0.6283 l -1.016,6.2682 -26.5534,-4.3043 c -0.3535,-0.01 -0.6483,0.2495 -0.7043,0.595 l -0.9441,5.8239 c -0.056,0.3455 0.1428,0.6817 0.4803,0.787 l 26.5534,4.3043 -1.0161,6.2682 c -0.064,0.3948 0.1761,0.7883 0.571,0.8523 l 5.824,0.9441 c 0.3948,0.064 0.7963,-0.2255 0.8603,-0.6203 z"
         id="path4158"
         inkscape:connector-curvature="0" /><path
         d="m 1384.6261,1095.8438 c 0,0 0.7659,0.2519 1.47,-0.2217 l 3.3445,-2.2493 c 0.7041,-0.4736 0.7404,-1.1797 0.7404,-1.1797 l 3.0549,-15.6038 c 0.067,-0.3435 -0.16,-0.7446 -0.5525,-0.8215 l -32.925,-6.4459 c -0.3434,-0.067 -0.7542,0.209 -0.8214,0.5525 l -1.1432,5.8391 c -0.077,0.3926 0.209,0.7542 0.5525,0.8215 l 11.9236,2.3343 -0.4419,2.2572 -12.865,2.4743 c -0.3723,0.08 -0.7831,0.3562 -0.8599,0.7488 l -1.2873,6.5751 c -0.067,0.3435 0.1898,0.8524 0.5525,0.8215 l 13.296,-2.5938 0.069,0.1664 2.2493,3.3445 c 0.4735,0.7041 1.1797,0.7405 1.1797,0.7405 l 12.4634,2.44 z m 0.119,-14.1406 -0.999,5.1032 c 0,0 0.011,0.2058 -0.2241,0.3637 l -0.9388,0.6314 c -0.2347,0.1578 -0.4214,0.07 -0.4214,0.07 l -4.6124,-0.903 c 0,0 -0.2059,0.011 -0.3637,-0.224 l -0.6314,-0.9388 c -0.1184,-0.1761 -0.09,-0.3233 -0.08,-0.3723 l 1.0087,-5.1522 7.2621,1.4217 z"
         id="path4160"
         inkscape:connector-curvature="0" /><path
         d="m 1386.2941,1109.598 1.2832,-5.81 c 0.086,-0.3906 -0.142,-0.7482 -0.5325,-0.8345 l -32.6141,-7.2032 c -0.3905,-0.086 -0.7482,0.142 -0.8344,0.5326 l -1.2833,5.81 c -0.086,0.3906 0.142,0.7482 0.5326,0.8345 l 32.614,7.2032 c 0.3906,0.086 0.7483,-0.142 0.8345,-0.5326 z"
         id="path4162"
         inkscape:connector-curvature="0" /><path
         d="m 1377.7041,1142.0916 c 0.049,0.012 0.061,-0.036 0.061,-0.036 l 0.097,0.024 c 0.2061,-10e-5 0.3759,-0.061 0.5093,-0.182 0,0 0.012,-0.049 0.061,-0.036 0.012,-0.049 0.024,-0.097 0.085,-0.1334 l 1.5389,-6.1607 c 0.097,-0.3881 -0.036,-0.6791 -0.4489,-0.8852 l -17.4523,-9.7708 -3.9779,-1.4059 4.2081,0.4842 19.8152,0.3115 c 0.4244,-0.049 0.7155,-0.1821 0.8124,-0.5701 l 1.5389,-6.1607 c -0.036,-0.061 -0.024,-0.1092 -0.012,-0.1577 -0.036,-0.061 -0.036,-0.061 -0.024,-0.1091 -0.061,-0.1698 -0.182,-0.3032 -0.3639,-0.4001 l -0.1455,-0.036 -32.0772,-9.4041 c -0.3881,-0.097 -0.764,0.1699 -0.8488,0.5095 l -1.442,5.7726 c -0.097,0.3881 0.1215,0.7518 0.5095,0.8488 l 12.2124,3.3082 -13.2909,0.5968 c -0.388,0.1092 -0.8124,0.364 -0.9093,0.752 l -0.9694,3.8808 c -0.097,0.3881 0.1578,0.8125 0.461,1.0428 l 11.4369,6.8252 -12.3214,-2.8717 c -0.3881,-0.097 -0.7639,0.1699 -0.8609,0.558 l -1.4298,5.7241 c -0.097,0.3881 0.1214,0.7519 0.5095,0.8488 l 32.7193,6.8331 z"
         id="path4164"
         inkscape:connector-curvature="0" /><path
         d="m 1365.9824,1169.315 c 0,0 0.6447,0.2904 1.3877,-0.1194 l 3.4811,-1.9607 c 0.791,-0.396 0.8893,-1.0962 0.8893,-1.0962 l 3.5812,-12.393 c 0,0 0.2904,-0.6447 -0.1675,-1.4016 l -1.9126,-3.4672 c -0.4099,-0.743 -1.0962,-0.8893 -1.0962,-0.8893 l -24.6418,-7.1207 c 0,0 -0.6586,-0.2424 -1.4016,0.1675 l -3.4673,1.9126 c -0.7429,0.4098 -0.8892,1.0962 -0.8892,1.0962 l -3.5951,12.441 c 0,0 -0.2285,0.6106 0.1814,1.3535 l 1.8987,3.5153 c 0.4099,0.743 1.1101,0.8413 1.1101,0.8413 l 24.6418,7.1207 z m -0.1925,-9.0595 c -0.014,0.048 -0.056,0.1921 -0.2413,0.2946 l -0.9907,0.5464 c -0.2476,0.1366 -0.4259,0.033 -0.4259,0.033 l -17.1484,-4.9554 c -0.096,-0.028 -0.1921,-0.055 -0.2946,-0.2412 l -0.4781,-0.8669 1.6101,-5.572 0.8668,-0.4781 c 0.1719,-0.055 0.2819,-0.075 0.3779,-0.047 l 17.1484,4.9554 c 0,0 0.1921,0.055 0.3426,0.2551 l 0.5326,1.0387 c 0.1164,0.1377 0.075,0.2818 0.061,0.3299 l -1.3603,4.7074 z"
         id="path4166"
         inkscape:connector-curvature="0" /><path
         d="m 1361.7236,1197.9177 1.8433,-5.6572 c 0.1084,-0.3328 -0.068,-0.7585 -0.4487,-0.8824 l -18.8734,-6.1496 0.5539,0.075 20.3952,-0.2961 0.015,-0.048 c 0.4589,0.044 0.774,-0.1159 0.8825,-0.4487 l 2.308,-7.0834 c 0.1239,-0.3804 -0.068,-0.7585 -0.4487,-0.8825 l -31.8994,-10.3937 c -0.3328,-0.1085 -0.7585,0.068 -0.8824,0.4487 l -1.8434,5.6572 c -0.1084,0.3328 0.116,0.774 0.4487,0.8824 l 15.8784,5.1737 -17.7681,0.6262 c -0.3793,0.034 -0.8205,0.2586 -0.9444,0.6389 l -2.4474,7.5113 c -0.124,0.3804 0.1159,0.774 0.4487,0.8825 l 31.8994,10.3937 c 0.3803,0.124 0.7585,-0.068 0.8824,-0.4487 z"
         id="path4168"
         inkscape:connector-curvature="0" /><path
         d="m 1357.0891,1210.4214 1.9817,-5.6103 c 0.1332,-0.3772 -0.05,-0.76 -0.4269,-0.8932 l -31.4931,-11.124 c -0.3772,-0.1332 -0.76,0.05 -0.8932,0.4269 l -1.9817,5.6103 c -0.1332,0.3772 0.05,0.7599 0.4269,0.8932 l 31.4931,11.124 c 0.3772,0.1332 0.76,-0.05 0.8932,-0.4269 z"
         id="path4170"
         inkscape:connector-curvature="0" /><path
         d="m 1342.8278,1235.7448 c 0,0 0.6187,0.3424 1.3928,0 l 3.6305,-1.668 c 0.8209,-0.3297 0.9763,-1.0195 0.9763,-1.0195 l 4.5874,-12.0568 c 0,0 0.3424,-0.6186 -0.052,-1.4106 l -1.6212,-3.6127 c -0.3474,-0.7741 -1.0195,-0.9763 -1.0195,-0.9763 l -23.9734,-9.1214 c 0,0 -0.6364,-0.2956 -1.4106,0.052 l -3.6126,1.6213 c -0.7742,0.3474 -0.9764,1.0194 -0.9764,1.0194 l -4.6051,12.1035 c 0,0 -0.2779,0.5898 0.07,1.3639 l 1.6035,3.6594 c 0.3474,0.7742 1.0372,0.9296 1.0372,0.9296 l 23.9734,9.1214 z m 0.5525,-9.0447 c -0.018,0.047 -0.071,0.1869 -0.2646,0.2737 l -1.0322,0.4633 c -0.2581,0.1158 -0.4272,0 -0.4272,0 l -16.6833,-6.3476 c -0.093,-0.036 -0.1869,-0.071 -0.2737,-0.2647 l -0.4054,-0.9031 2.0626,-5.4209 0.9031,-0.4053 c 0.1758,-0.04 0.287,-0.051 0.3805,-0.016 l 16.6832,6.3477 c 0,0 0.187,0.071 0.3205,0.2824 l 0.4455,1.0789 c 0.1046,0.1468 0.051,0.287 0.034,0.3338 l -1.7425,4.5797 z"
         id="path4172"
         inkscape:connector-curvature="0" /></g></g></svg>