<?xml version="1.0" encoding="UTF-8" standalone="no"?>
<!-- Generator: Adobe Illustrator 17.0.0, SVG Export Plug-In . SVG Version: 6.00 Build 0)  -->

<svg
   xmlns:dc="http://purl.org/dc/elements/1.1/"
   xmlns:cc="http://creativecommons.org/ns#"
   xmlns:rdf="http://www.w3.org/1999/02/22-rdf-syntax-ns#"
   xmlns:svg="http://www.w3.org/2000/svg"
   xmlns="http://www.w3.org/2000/svg"
   xmlns:sodipodi="http://sodipodi.sourceforge.net/DTD/sodipodi-0.dtd"
   xmlns:inkscape="http://www.inkscape.org/namespaces/inkscape"
   version="1.1"
   id="Layer_1"
   x="0px"
   y="0px"
   width="629.00854"
   height="183.3797"
   viewBox="0 0 629.00854 183.3797"
   xml:space="preserve"
   inkscape:version="0.91 r13725"
   sodipodi:docname="lista_nozze_path.svg"><metadata
     id="metadata61"><rdf:RDF><cc:Work
         rdf:about=""><dc:format>image/svg+xml</dc:format><dc:type
           rdf:resource="http://purl.org/dc/dcmitype/StillImage" /><dc:title></dc:title></cc:Work></rdf:RDF></metadata><defs
     id="defs59" /><sodipodi:namedview
     pagecolor="#ffffff"
     bordercolor="#666666"
     borderopacity="1"
     objecttolerance="10"
     gridtolerance="10"
     guidetolerance="10"
     inkscape:pageopacity="0"
     inkscape:pageshadow="2"
     inkscape:window-width="1474"
     inkscape:window-height="792"
     id="namedview57"
     showgrid="false"
     showguides="true"
     inkscape:guide-bbox="true"
     inkscape:zoom="0.5"
     inkscape:cx="152.83702"
     inkscape:cy="-68.400396"
     inkscape:window-x="277"
     inkscape:window-y="137"
     inkscape:window-maximized="0"
     inkscape:current-layer="g5"
     fit-margin-top="0"
     fit-margin-left="0"
     fit-margin-right="0"
     fit-margin-bottom="0"><sodipodi:guide
       position="611.55428,99.2"
       orientation="0,1"
       id="guide4403" /></sodipodi:namedview><style
     type="text/css"
     id="style3">
	.st0{fill:#62676C;}
	.st1{fill:#50555B;}
	.st2{fill:#393D42;}
	.st3{fill:none;stroke:#989CA3;stroke-width:3;stroke-linecap:round;stroke-linejoin:round;stroke-miterlimit:10;}
	.st4{fill:#FFF7E4;}
	.st5{fill:#FFFFFF;}
	.st6{fill:#E9EFD7;}
	.st7{fill:#E8ECD5;}
</style><g
     id="g5"
     transform="translate(-232.94573,-12.820301)"><g
       id="g7"
       transform="matrix(0.58463474,0,0,1,227.3917,0)"><g
         id="g9"><path
           class="st6"
           d="m 1065.9,192.6 c -62.3,-9.6 -124.8,-17.6 -187.6,-24 3,-29.9 5.9,-59.8 8.9,-89.8 64.4,6.5 128.6,14.7 192.6,24.6 -12.5,14.2 -24.9,28.5 -37.2,42.9 7.9,15.5 15.6,30.9 23.3,46.3 z"
           id="path11"
           inkscape:connector-curvature="0"
           style="fill:#e9efd7" /><path
           class="st5"
           d="m 1070.8,196.2 c -65,-10.2 -130.1,-18.5 -195.5,-25.1 3.1,-31.8 6.3,-63.5 9.4,-95.3 67.2,6.7 134.1,15.3 200.7,25.7 -13.3,15 -26.4,30 -39.4,45.2 8.4,16.5 16.6,33 24.8,49.5 z m -189.4,-30 c 60.1,6.1 119.9,13.8 179.6,22.9 -7.1,-14.4 -14.4,-28.8 -21.7,-43.1 11.6,-13.6 23.3,-27.1 35.1,-40.5 C 1013,96.1 951.6,88.3 889.9,82 c -2.9,28 -5.7,56.1 -8.5,84.2 z"
           id="path13"
           inkscape:connector-curvature="0"
           style="fill:#ffffff" /></g><g
         id="g15"><path
           class="st6"
           d="m 15.4,103.5 c 64,-9.9 128.2,-18.1 192.6,-24.6 3,29.9 5.9,59.8 8.9,89.8 -62.7,6.4 -125.2,14.3 -187.6,24 7.4,-17.4 14.8,-34.7 22.4,-51.9 -12,-12.6 -24.1,-24.9 -36.3,-37.3 z"
           id="path17"
           inkscape:connector-curvature="0"
           style="fill:#e9efd7" /><path
           class="st5"
           d="m 220,171.2 c -65.3,6.6 -130.3,14.9 -195.2,25 7.7,-18.4 15.6,-36.7 23.6,-54.9 C 35.5,128 22.5,114.8 9.5,101.6 76.3,91.1 143.3,82.5 210.6,75.8 c 3.1,31.8 6.3,63.6 9.4,95.4 z M 33.9,189.1 c 59.8,-9.2 119.8,-16.8 179.9,-23 C 211,138 208.2,110 205.4,81.9 143.8,88.2 82.5,96 21.3,105.4 c 11.4,11.5 22.6,23 33.8,34.7 -7.1,16.3 -14.2,32.6 -21.2,49 z"
           id="path19"
           inkscape:connector-curvature="0"
           style="fill:#ffffff" /></g><g
         id="g21"><path
           class="st6"
           d="M 995.4,147.9 C 701.6,109.3 404.4,108.8 110.5,146.5 106.1,112.4 101.6,78.4 97.2,44.3 400,5.4 706.4,5.9 1009.1,45.8 c -4.6,34 -9.1,68.1 -13.7,102.1 z"
           id="path23"
           inkscape:connector-curvature="0"
           style="fill:#e9efd7" /><path
           class="st5"
           d="M 997.9,151.1 C 702.5,112 403.6,111.5 108.1,149.7 103.4,113.8 98.7,77.9 94,42 399,2.6 707.5,3.1 1012.4,43.5 c -4.9,35.8 -9.7,71.7 -14.5,107.6 z M 113,143.4 c 292.3,-37.2 587.8,-36.8 880,1.4 4.3,-32.2 8.6,-64.4 12.8,-96.7 C 705.2,8.9 401.2,8.4 100.5,46.7 c 4.1,32.2 8.3,64.5 12.5,96.7 z"
           id="path25"
           inkscape:connector-curvature="0"
           style="fill:#ffffff" /></g></g><g
       transform="matrix(-0.11635884,-0.99320724,0.99320724,-0.11635884,-697.58016,1978.6885)"
       inkscape:transform-center-x="4.3542411"
       inkscape:transform-center-y="-1241.0516"
       style="font-style:normal;font-variant:normal;font-weight:bold;font-stretch:normal;font-size:50px;line-height:125%;font-family:Liberator;-inkscape-font-specification:'Liberator, Bold';text-align:start;letter-spacing:0px;word-spacing:0px;writing-mode:lr-tb;text-anchor:start;fill:#62676c;fill-opacity:1;stroke:none;stroke-width:1px;stroke-linecap:butt;stroke-linejoin:miter;stroke-opacity:1"
       id="text4409"><path
         d="m 1747.7576,1338.5903 0.1534,-13.3991 26.8982,0.3078 c 0.3006,-0.046 0.554,-0.3436 0.558,-0.6936 l 0.068,-5.8996 c 0,-0.35 -0.2425,-0.6529 -0.542,-0.7063 l 6e-4,-0.05 -33.5478,-0.3839 c -0.4,0 -0.7039,0.3419 -0.7085,0.7419 l -0.2289,19.9987 c 0,0.4 0.2914,0.7534 0.6914,0.7579 l 5.9496,0.068 c 0.3499,0 0.7039,-0.3419 0.7085,-0.7419 z"
         id="path3350"
         inkscape:connector-curvature="0" /><path
         d="m 1774.8338,1352.271 0.1669,-5.9476 c 0.011,-0.3999 -0.2803,-0.7082 -0.6801,-0.7194 l -33.3869,-0.9366 c -0.3998,-0.011 -0.7081,0.2803 -0.7194,0.6801 l -0.1668,5.9477 c -0.011,0.3998 0.2803,0.7081 0.6801,0.7194 l 33.3869,0.9365 c 0.3998,0.011 0.7081,-0.2802 0.7193,-0.6801 z"
         id="path3352"
         inkscape:connector-curvature="0" /><path
         d="m 1769.1533,1381.1433 c 0,0 0.6971,0.082 1.3235,-0.4908 l 2.9235,-2.6707 c 0.6765,-0.5701 0.6082,-1.2739 0.6082,-1.2739 l 0.5844,-12.9368 c 0,0 0.1314,-0.6948 -0.4908,-1.3235 l -2.6708,-2.9235 c -0.5723,-0.6265 -1.2761,-0.5582 -1.2761,-0.5582 l 0,-0.05 -11.8379,-0.5348 0,0.05 c 0,0 -0.6948,-0.1315 -1.3213,0.4408 l -2.9235,2.6708 c -0.6265,0.5723 -0.6081,1.2738 -0.6081,1.2738 l -0.4061,8.9909 c 0,0.1 -0.057,0.1476 -0.1612,0.243 l -0.8375,0.813 c -0.2066,0.1408 -0.4064,0.1318 -0.4064,0.1318 l -3.7462,-0.1692 c 0,0 -0.1998,-0.01 -0.3928,-0.1679 l -0.7608,-0.8853 c -0.095,-0.1044 -0.1431,-0.1566 -0.1386,-0.2565 l 0.2843,-6.2936 2.2477,0.1016 c 0.3996,0.018 0.7129,-0.2681 0.7309,-0.6677 l 0.2663,-5.894 c 0.018,-0.3996 -0.2659,-0.7628 -0.6655,-0.7809 l -4.845,-0.2188 c -0.05,0 -0.1022,0.045 -0.1022,0.045 0,0 -0.6948,-0.1315 -1.3212,0.4408 l -2.9235,2.6708 c -0.6265,0.5723 -0.6081,1.2739 -0.6081,1.2739 l -0.5844,12.9368 c 0,0 -0.082,0.697 0.4907,1.3235 l 2.6708,2.9235 c 0.5723,0.6265 1.2739,0.6081 1.2739,0.6081 l 11.8379,0.5348 c 0,0 0.697,0.082 1.3235,-0.4908 l 2.9235,-2.6708 c 0.6764,-0.5701 0.6081,-1.2739 0.6081,-1.2739 l 0.422,-9.3404 0.7308,-0.6677 c 0.2089,-0.1908 0.4064,-0.1318 0.4064,-0.1318 l -0.048,-0.052 4.0459,0.1827 c 0,0 0.1998,0.01 0.3905,0.2179 l 0.7631,0.8353 c 0.1431,0.1566 0.1386,0.2565 0.1341,0.3564 l -0.2798,6.1937 -2.4975,-0.1129 c -0.3996,-0.018 -0.7128,0.2682 -0.7308,0.6677 l -0.2663,5.894 c -0.018,0.3996 0.2658,0.7628 0.6654,0.7809 l 5.1448,0.2324 0.052,-0.048 0,0.05 z"
         id="path3354"
         inkscape:connector-curvature="0" /><path
         d="m 1771.9147,1408.5091 1.3625,-19.9536 c 0.027,-0.399 -0.2981,-0.7721 -0.6971,-0.7993 l -5.8863,-0.402 c -0.3991,-0.027 -0.7222,0.3015 -0.7495,0.7006 l -0.4326,6.3352 -26.8375,-1.8326 c -0.3526,0.026 -0.6225,0.3083 -0.6463,0.6575 l -0.402,5.8863 c -0.024,0.3492 0.2052,0.6655 0.551,0.7393 l 26.8375,1.8326 -0.4326,6.3352 c -0.027,0.3991 0.2482,0.7687 0.6472,0.796 l 5.8863,0.4019 c 0.3991,0.027 0.7721,-0.2981 0.7994,-0.6971 z"
         id="path3356"
         inkscape:connector-curvature="0" /><path
         d="m 1763.4844,1422.0806 -1.0376,11.5033 c -0.031,0.3485 0.2359,0.7241 0.6343,0.76 l 5.9259,0.5345 c 0.3984,0.036 0.7286,-0.2857 0.7601,-0.6343 l 1.635,-18.1264 c 0.036,-0.3984 -0.2359,-0.7241 -0.6343,-0.76 l -33.4144,-3.014 c -0.3984,-0.036 -0.7241,0.2359 -0.76,0.6343 l -1.635,18.1264 c -0.032,0.3486 0.2359,0.7241 0.6343,0.7601 l 5.9259,0.5345 c 0.3984,0.036 0.7286,-0.2857 0.7601,-0.6343 l 1.0376,-11.5033 6.4239,0.5794 -0.7951,8.8143 c -0.036,0.3983 0.2359,0.7241 0.6343,0.76 l 5.926,0.5345 c 0.3984,0.036 0.7241,-0.2359 0.76,-0.6343 l 0.7951,-8.8142 6.4239,0.5795 z"
         id="path3358"
         inkscape:connector-curvature="0" /><path
         d="m 1764.4593,1480.251 0.7495,-5.9026 c 0.044,-0.3472 -0.2094,-0.7322 -0.6062,-0.7826 l -19.6919,-2.5006 0.5582,-0.03 19.9777,-4.1161 0.01,-0.05 c 0.459,-0.043 0.7385,-0.259 0.7826,-0.6063 l 0.9385,-7.3906 c 0.05,-0.3968 -0.2094,-0.7322 -0.6062,-0.7826 l -33.2827,-4.2265 c -0.3472,-0.044 -0.7322,0.2095 -0.7826,0.6063 l -0.7496,5.9026 c -0.044,0.3472 0.259,0.7385 0.6063,0.7826 l 16.5669,2.1038 -17.3354,3.9476 c -0.3661,0.1047 -0.7574,0.4078 -0.8078,0.8046 l -0.9952,7.8371 c -0.05,0.3968 0.259,0.7385 0.6062,0.7826 l 33.2828,4.2265 c 0.3968,0.05 0.7322,-0.2095 0.7826,-0.6063 z"
         id="path3360"
         inkscape:connector-curvature="0" /><path
         d="m 1755.5867,1508.1284 c 0,0 0.6773,0.2033 1.3601,-0.3006 l 3.1935,-2.4008 c 0.7321,-0.4965 0.7376,-1.2035 0.7376,-1.2035 l 1.9227,-12.7559 c 0,0 0.2033,-0.6773 -0.3501,-1.3675 l -2.3513,-3.1861 c -0.5039,-0.6827 -1.2035,-0.7376 -1.2035,-0.7376 l -25.3635,-3.8231 c 0,0 -0.6847,-0.1538 -1.3675,0.3501 l -3.186,2.3513 c -0.6828,0.5039 -0.7377,1.2035 -0.7377,1.2035 l -1.9302,12.8054 c 0,0 -0.1463,0.6353 0.3576,1.318 l 2.3439,3.2355 c 0.5039,0.6827 1.211,0.6882 1.211,0.6882 l 25.3634,3.8231 z m -1.3805,-8.9558 c -0.01,0.049 -0.03,0.1978 -0.2005,0.3238 l -0.9103,0.6718 c -0.2276,0.1679 -0.4179,0.089 -0.4179,0.089 l -17.6506,-2.6606 c -0.099,-0.015 -0.1978,-0.03 -0.3237,-0.2005 l -0.5879,-0.7965 0.8645,-5.7352 0.7965,-0.5878 c 0.1633,-0.077 0.2696,-0.1111 0.3685,-0.096 l 17.6506,2.6606 c 0,0 0.1978,0.03 0.3732,0.2079 l 0.6643,0.9597 c 0.1335,0.1213 0.1111,0.2696 0.1036,0.3191 l -0.7303,4.8452 z"
         id="path3362"
         inkscape:connector-curvature="0" /><path
         d="m 1748.9865,1534.7694 5.862,1.0193 c 0.3941,0.069 0.741,-0.1756 0.8096,-0.5697 l 3.4349,-19.7536 c 0.06,-0.3448 -0.1756,-0.741 -0.5697,-0.8095 l -5.862,-1.0194 c -0.3941,-0.069 -0.7497,0.2249 -0.8096,0.5697 l -1.9616,11.2808 -18.0426,-15.3175 c -0.1306,-0.1243 -0.2699,-0.1992 -0.4669,-0.2335 l -5.862,-1.0193 c -0.3941,-0.069 -0.7989,0.2163 -0.8589,0.5611 l -3.4349,19.7536 c -0.068,0.3941 0.2249,0.7496 0.619,0.8182 l 5.8127,1.0107 c 0.3941,0.069 0.7411,-0.1756 0.8096,-0.5697 l 1.9873,-11.4285 18.0747,15.4246 c 0.073,0.1649 0.2613,0.2484 0.4584,0.2827 z"
         id="path3364"
         inkscape:connector-curvature="0" /><path
         d="m 1743.812,1561.364 5.838,1.1491 c 0.3925,0.077 0.7447,-0.1591 0.822,-0.5516 l 3.8724,-19.6725 c 0.068,-0.3434 -0.1591,-0.7447 -0.5516,-0.822 l -5.838,-1.1492 c -0.3925,-0.077 -0.7544,0.2083 -0.822,0.5517 l -2.2114,11.2344 -17.6983,-15.7141 c -0.1278,-0.1271 -0.2654,-0.2051 -0.4616,-0.2437 l -5.838,-1.1492 c -0.3924,-0.077 -0.8034,0.1986 -0.871,0.542 l -3.8724,19.6725 c -0.077,0.3924 0.2082,0.7544 0.6006,0.8316 l 5.7889,1.1396 c 0.3925,0.077 0.7448,-0.1592 0.8221,-0.5517 l 2.2404,-11.3816 17.728,15.8219 c 0.069,0.1665 0.2557,0.2541 0.4519,0.2928 z"
         id="path3366"
         inkscape:connector-curvature="0" /><path
         d="m 1740.3315,1574.1979 -2.477,11.2813 c -0.075,0.3418 0.1429,0.748 0.5336,0.8338 l 5.8116,1.276 c 0.3907,0.086 0.7588,-0.1917 0.8338,-0.5335 l 3.9032,-17.7766 c 0.086,-0.3907 -0.1429,-0.748 -0.5336,-0.8338 l -32.7694,-7.1951 c -0.3907,-0.086 -0.748,0.1429 -0.8338,0.5336 l -3.9032,17.7765 c -0.075,0.3419 0.1429,0.7481 0.5336,0.8339 l 5.8116,1.276 c 0.3907,0.086 0.7587,-0.1917 0.8338,-0.5336 l 2.477,-11.2813 6.2999,1.3833 -1.8979,8.6441 c -0.086,0.3907 0.1429,0.748 0.5336,0.8338 l 5.8115,1.276 c 0.3907,0.086 0.7481,-0.1429 0.8339,-0.5336 l 1.8979,-8.644 6.2999,1.3832 z"
         id="path3368"
         inkscape:connector-curvature="0" /></g></g></svg>