<?xml version="1.0" encoding="UTF-8" standalone="no"?>
<!-- Generator: Adobe Illustrator 17.0.0, SVG Export Plug-In . SVG Version: 6.00 Build 0)  -->

<svg
   xmlns:dc="http://purl.org/dc/elements/1.1/"
   xmlns:cc="http://creativecommons.org/ns#"
   xmlns:rdf="http://www.w3.org/1999/02/22-rdf-syntax-ns#"
   xmlns:svg="http://www.w3.org/2000/svg"
   xmlns="http://www.w3.org/2000/svg"
   xmlns:sodipodi="http://sodipodi.sourceforge.net/DTD/sodipodi-0.dtd"
   xmlns:inkscape="http://www.inkscape.org/namespaces/inkscape"
   version="1.1"
   id="Layer_1"
   x="0px"
   y="0px"
   width="649.00854"
   height="203.3797"
   viewBox="0 0 649.00854 203.3797"
   xml:space="preserve"
   inkscape:version="0.91 r13725"
   sodipodi:docname="lista_nozze_path.svg"><metadata
     id="metadata61"><rdf:RDF><cc:Work
         rdf:about=""><dc:format>image/svg+xml</dc:format><dc:type
           rdf:resource="http://purl.org/dc/dcmitype/StillImage" /><dc:title></dc:title></cc:Work></rdf:RDF></metadata><defs
     id="defs59" /><sodipodi:namedview
     pagecolor="#ffffff"
     bordercolor="#666666"
     borderopacity="1"
     objecttolerance="10"
     gridtolerance="10"
     guidetolerance="10"
     inkscape:pageopacity="0"
     inkscape:pageshadow="2"
     inkscape:window-width="1920"
     inkscape:window-height="1033"
     id="namedview57"
     showgrid="false"
     showguides="true"
     inkscape:guide-bbox="true"
     inkscape:zoom="0.35355339"
     inkscape:cx="21.68693"
     inkscape:cy="-60.66975"
     inkscape:window-x="-2"
     inkscape:window-y="-3"
     inkscape:window-maximized="1"
     inkscape:current-layer="g5"
     fit-margin-top="10"
     fit-margin-left="10"
     fit-margin-right="10"
     fit-margin-bottom="10"><sodipodi:guide
       position="621.55428,109.2"
       orientation="0,1"
       id="guide4403" /></sodipodi:namedview><style
     type="text/css"
     id="style3">
	.st0{fill:#62676C;}
	.st1{fill:#50555B;}
	.st2{fill:#393D42;}
	.st3{fill:none;stroke:#989CA3;stroke-width:3;stroke-linecap:round;stroke-linejoin:round;stroke-miterlimit:10;}
	.st4{fill:#FFF7E4;}
	.st5{fill:#FFFFFF;}
	.st6{fill:#E9EFD7;}
	.st7{fill:#E8ECD5;}
</style><g
     id="g5"
     transform="translate(-222.94573,-2.8203008)"><g
       id="g4158"><g
         transform="matrix(0.58463474,0,0,1,227.3917,0)"
         id="g7"><g
           id="g9"><path
             style="fill:#e9efd7"
             inkscape:connector-curvature="0"
             id="path11"
             d="m 1065.9,192.6 c -62.3,-9.6 -124.8,-17.6 -187.6,-24 3,-29.9 5.9,-59.8 8.9,-89.8 64.4,6.5 128.6,14.7 192.6,24.6 -12.5,14.2 -24.9,28.5 -37.2,42.9 7.9,15.5 15.6,30.9 23.3,46.3 z"
             class="st6" /><path
             style="fill:#ffffff"
             inkscape:connector-curvature="0"
             id="path13"
             d="m 1070.8,196.2 c -65,-10.2 -130.1,-18.5 -195.5,-25.1 3.1,-31.8 6.3,-63.5 9.4,-95.3 67.2,6.7 134.1,15.3 200.7,25.7 -13.3,15 -26.4,30 -39.4,45.2 8.4,16.5 16.6,33 24.8,49.5 z m -189.4,-30 c 60.1,6.1 119.9,13.8 179.6,22.9 -7.1,-14.4 -14.4,-28.8 -21.7,-43.1 11.6,-13.6 23.3,-27.1 35.1,-40.5 C 1013,96.1 951.6,88.3 889.9,82 c -2.9,28 -5.7,56.1 -8.5,84.2 z"
             class="st5" /></g><g
           id="g15"><path
             style="fill:#e9efd7"
             inkscape:connector-curvature="0"
             id="path17"
             d="m 15.4,103.5 c 64,-9.9 128.2,-18.1 192.6,-24.6 3,29.9 5.9,59.8 8.9,89.8 -62.7,6.4 -125.2,14.3 -187.6,24 7.4,-17.4 14.8,-34.7 22.4,-51.9 -12,-12.6 -24.1,-24.9 -36.3,-37.3 z"
             class="st6" /><path
             style="fill:#ffffff"
             inkscape:connector-curvature="0"
             id="path19"
             d="m 220,171.2 c -65.3,6.6 -130.3,14.9 -195.2,25 7.7,-18.4 15.6,-36.7 23.6,-54.9 C 35.5,128 22.5,114.8 9.5,101.6 76.3,91.1 143.3,82.5 210.6,75.8 c 3.1,31.8 6.3,63.6 9.4,95.4 z M 33.9,189.1 c 59.8,-9.2 119.8,-16.8 179.9,-23 C 211,138 208.2,110 205.4,81.9 143.8,88.2 82.5,96 21.3,105.4 c 11.4,11.5 22.6,23 33.8,34.7 -7.1,16.3 -14.2,32.6 -21.2,49 z"
             class="st5" /></g><g
           id="g21"><path
             style="fill:#e9efd7"
             inkscape:connector-curvature="0"
             id="path23"
             d="M 995.4,147.9 C 701.6,109.3 404.4,108.8 110.5,146.5 106.1,112.4 101.6,78.4 97.2,44.3 400,5.4 706.4,5.9 1009.1,45.8 c -4.6,34 -9.1,68.1 -13.7,102.1 z"
             class="st6" /><path
             style="fill:#ffffff"
             inkscape:connector-curvature="0"
             id="path25"
             d="M 997.9,151.1 C 702.5,112 403.6,111.5 108.1,149.7 103.4,113.8 98.7,77.9 94,42 399,2.6 707.5,3.1 1012.4,43.5 c -4.9,35.8 -9.7,71.7 -14.5,107.6 z M 113,143.4 c 292.3,-37.2 587.8,-36.8 880,1.4 4.3,-32.2 8.6,-64.4 12.8,-96.7 C 705.2,8.9 401.2,8.4 100.5,46.7 c 4.1,32.2 8.3,64.5 12.5,96.7 z"
             class="st5" /></g></g><g
         id="text4409"
         style="font-style:normal;font-variant:normal;font-weight:bold;font-stretch:normal;font-size:50px;line-height:125%;font-family:Liberator;-inkscape-font-specification:'Liberator, Bold';text-align:start;letter-spacing:0px;word-spacing:0px;writing-mode:lr-tb;text-anchor:start;fill:#62676c;fill-opacity:1;stroke:none;stroke-width:1px;stroke-linecap:butt;stroke-linejoin:miter;stroke-opacity:1"
         inkscape:transform-center-y="-1241.0516"
         inkscape:transform-center-x="4.3542411"
         transform="matrix(-0.11635884,-0.99320724,0.99320724,-0.11635884,-697.58016,1978.6885)"><path
           id="path4150"
           d="m 1747.7576,1338.5903 0.1534,-13.3991 26.8982,0.3078 c 0.3006,-0.046 0.554,-0.3436 0.558,-0.6936 l 0.068,-5.8996 c 0,-0.35 -0.2425,-0.6529 -0.542,-0.7063 l 6e-4,-0.05 -33.5478,-0.3839 c -0.4,0 -0.7039,0.3419 -0.7085,0.7419 l -0.2289,19.9987 c 0,0.4 0.2914,0.7534 0.6914,0.7579 l 5.9496,0.068 c 0.3499,0 0.7039,-0.3419 0.7085,-0.7419 z"
           inkscape:connector-curvature="0" /><path
           id="path4152"
           d="m 1774.8338,1352.271 0.1669,-5.9476 c 0.011,-0.3999 -0.2803,-0.7082 -0.6801,-0.7194 l -33.3869,-0.9366 c -0.3998,-0.011 -0.7081,0.2803 -0.7194,0.6801 l -0.1668,5.9477 c -0.011,0.3998 0.2803,0.7081 0.6801,0.7194 l 33.3869,0.9365 c 0.3998,0.011 0.7081,-0.2802 0.7193,-0.6801 z"
           inkscape:connector-curvature="0" /><path
           id="path4154"
           d="m 1769.1533,1381.1433 c 0,0 0.6971,0.082 1.3235,-0.4908 l 2.9235,-2.6707 c 0.6765,-0.5701 0.6082,-1.2739 0.6082,-1.2739 l 0.5844,-12.9368 c 0,0 0.1314,-0.6948 -0.4908,-1.3235 l -2.6708,-2.9235 c -0.5723,-0.6265 -1.2761,-0.5582 -1.2761,-0.5582 l 0,-0.05 -11.8379,-0.5348 0,0.05 c 0,0 -0.6948,-0.1315 -1.3213,0.4408 l -2.9235,2.6708 c -0.6265,0.5723 -0.6081,1.2738 -0.6081,1.2738 l -0.4061,8.9909 c 0,0.1 -0.057,0.1476 -0.1612,0.243 l -0.8375,0.813 c -0.2066,0.1408 -0.4064,0.1318 -0.4064,0.1318 l -3.7462,-0.1692 c 0,0 -0.1998,-0.01 -0.3928,-0.1679 l -0.7608,-0.8853 c -0.095,-0.1044 -0.1431,-0.1566 -0.1386,-0.2565 l 0.2843,-6.2936 2.2477,0.1016 c 0.3996,0.018 0.7129,-0.2681 0.7309,-0.6677 l 0.2663,-5.894 c 0.018,-0.3996 -0.2659,-0.7628 -0.6655,-0.7809 l -4.845,-0.2188 c -0.05,0 -0.1022,0.045 -0.1022,0.045 0,0 -0.6948,-0.1315 -1.3212,0.4408 l -2.9235,2.6708 c -0.6265,0.5723 -0.6081,1.2739 -0.6081,1.2739 l -0.5844,12.9368 c 0,0 -0.082,0.697 0.4907,1.3235 l 2.6708,2.9235 c 0.5723,0.6265 1.2739,0.6081 1.2739,0.6081 l 11.8379,0.5348 c 0,0 0.697,0.082 1.3235,-0.4908 l 2.9235,-2.6708 c 0.6764,-0.5701 0.6081,-1.2739 0.6081,-1.2739 l 0.422,-9.3404 0.7308,-0.6677 c 0.2089,-0.1908 0.4064,-0.1318 0.4064,-0.1318 l -0.048,-0.052 4.0459,0.1827 c 0,0 0.1998,0.01 0.3905,0.2179 l 0.7631,0.8353 c 0.1431,0.1566 0.1386,0.2565 0.1341,0.3564 l -0.2798,6.1937 -2.4975,-0.1129 c -0.3996,-0.018 -0.7128,0.2682 -0.7308,0.6677 l -0.2663,5.894 c -0.018,0.3996 0.2658,0.7628 0.6654,0.7809 l 5.1448,0.2324 0.052,-0.048 0,0.05 z"
           inkscape:connector-curvature="0" /><path
           id="path4156"
           d="m 1771.9147,1408.5091 1.3625,-19.9536 c 0.027,-0.399 -0.2981,-0.7721 -0.6971,-0.7993 l -5.8863,-0.402 c -0.3991,-0.027 -0.7222,0.3015 -0.7495,0.7006 l -0.4326,6.3352 -26.8375,-1.8326 c -0.3526,0.026 -0.6225,0.3083 -0.6463,0.6575 l -0.402,5.8863 c -0.024,0.3492 0.2052,0.6655 0.551,0.7393 l 26.8375,1.8326 -0.4326,6.3352 c -0.027,0.3991 0.2482,0.7687 0.6472,0.796 l 5.8863,0.4019 c 0.3991,0.027 0.7721,-0.2981 0.7994,-0.6971 z"
           inkscape:connector-curvature="0" /><path
           id="path4158"
           d="m 1769.2781,1431.2067 0.05,0 c 0.4619,-0.1081 0.7292,-0.2843 0.7614,-0.6328 l 0.202,-2.1907 0.1423,-1.5435 0.2021,-2.1907 c 0.032,-0.3485 -0.2031,-0.5208 -0.6328,-0.7613 l -0.05,0 -32.4493,-12.9345 c -0.3393,-0.1317 -0.7292,0.2842 -0.7659,0.6825 l -0.5235,5.676 c -0.037,0.3983 0.2797,0.7789 0.6144,0.9604 l 3.9227,1.5669 -0.9229,10.0075 -4.1431,0.823 c -0.3623,0.1173 -0.7429,0.4336 -0.7797,0.8319 l -0.5234,5.676 c -0.037,0.3983 0.2705,0.8785 0.6282,0.8111 11.4059,-2.2622 22.8616,-4.5197 34.2675,-6.7818 z m -21.9888,-8.7563 9.9266,3.9784 -10.4821,2.046 0.5555,-6.0244 z"
           inkscape:connector-curvature="0" /><path
           id="path4160"
           d="m 1763.7861,1485.1307 0.7732,-5.8996 c 0.046,-0.347 -0.2065,-0.733 -0.6031,-0.785 l -19.6817,-2.5796 0.5584,-0.028 19.994,-4.0359 0.01,-0.049 c 0.4592,-0.041 0.7395,-0.2561 0.785,-0.6031 l 0.9682,-7.3869 c 0.052,-0.3966 -0.2065,-0.733 -0.6031,-0.785 l -33.2655,-4.36 c -0.347,-0.046 -0.7331,0.2065 -0.785,0.6031 l -0.7733,5.8996 c -0.045,0.347 0.2561,0.7395 0.6031,0.785 l 16.5584,2.1702 -17.3511,3.8781 c -0.3665,0.1032 -0.759,0.4048 -0.811,0.8014 l -1.0267,7.833 c -0.052,0.3966 0.2561,0.7395 0.6031,0.785 l 33.2655,4.36 c 0.3966,0.052 0.7331,-0.2065 0.7851,-0.6031 z"
           inkscape:connector-curvature="0" /><path
           id="path4162"
           d="m 1754.8018,1512.9721 c 0,0 0.6764,0.206 1.3612,-0.2951 l 3.2031,-2.388 c 0.7341,-0.4935 0.7424,-1.2006 0.7424,-1.2006 l 1.9739,-12.748 c 0,0 0.206,-0.6765 -0.3446,-1.3689 l -2.3385,-3.1955 c -0.5012,-0.6847 -1.2006,-0.7424 -1.2006,-0.7424 l -25.3479,-3.9249 c 0,0 -0.6841,-0.1565 -1.3689,0.3446 l -3.1954,2.3386 c -0.6848,0.5011 -0.7425,1.2005 -0.7425,1.2005 l -1.9815,12.7975 c 0,0 -0.1489,0.6347 0.3522,1.3194 l 2.3309,3.2449 c 0.5012,0.6848 1.2082,0.6931 1.2082,0.6931 l 25.348,3.9248 z m -1.3447,-8.9612 c -0.01,0.049 -0.031,0.1976 -0.2017,0.3229 l -0.913,0.6682 c -0.2283,0.167 -0.4183,0.087 -0.4183,0.087 l -17.6398,-2.7314 c -0.099,-0.015 -0.1976,-0.031 -0.3229,-0.2018 l -0.5846,-0.7988 0.8875,-5.7317 0.7988,-0.5847 c 0.1636,-0.076 0.27,-0.1099 0.3689,-0.095 l 17.6398,2.7313 c 0,0 0.1976,0.031 0.3723,0.2094 l 0.6605,0.9625 c 0.1329,0.1217 0.11,0.27 0.1023,0.3194 l -0.7498,4.8423 z"
           inkscape:connector-curvature="0" /><path
           id="path4164"
           d="m 1748.0946,1539.5864 5.8579,1.0428 c 0.3938,0.07 0.7417,-0.1726 0.8118,-0.5664 l 3.5142,-19.7397 c 0.061,-0.3445 -0.1727,-0.7417 -0.5665,-0.8118 l -5.8579,-1.0429 c -0.3938,-0.07 -0.7505,0.2219 -0.8118,0.5665 l -2.0069,11.2728 -17.9809,-15.3898 c -0.1302,-0.1247 -0.2691,-0.2003 -0.466,-0.2353 l -5.8579,-1.0429 c -0.3938,-0.07 -0.7997,0.2132 -0.8611,0.5577 l -3.5142,19.7397 c -0.07,0.3938 0.2219,0.7505 0.6157,0.8206 l 5.8087,1.0341 c 0.3938,0.07 0.7418,-0.1727 0.8119,-0.5665 l 2.0331,-11.4204 18.0127,15.4969 c 0.072,0.1653 0.2603,0.2495 0.4572,0.2846 z"
           inkscape:connector-curvature="0" /><path
           id="path4166"
           d="m 1742.8134,1566.1601 5.8334,1.1726 c 0.3921,0.079 0.7453,-0.1562 0.8242,-0.5484 l 3.9513,-19.6568 c 0.069,-0.3431 -0.1562,-0.7454 -0.5483,-0.8242 l -5.8334,-1.1726 c -0.3921,-0.079 -0.7552,0.2052 -0.8242,0.5484 l -2.2565,11.2254 -17.635,-15.7849 c -0.1274,-0.1276 -0.2646,-0.2062 -0.4607,-0.2456 l -5.8333,-1.1726 c -0.3921,-0.079 -0.8042,0.1953 -0.8732,0.5385 l -3.9513,19.6568 c -0.079,0.3921 0.2052,0.7552 0.5973,0.834 l 5.7843,1.1628 c 0.3922,0.079 0.7454,-0.1562 0.8242,-0.5484 l 2.2861,-11.3725 17.6644,15.8929 c 0.068,0.1667 0.2547,0.2552 0.4507,0.2946 z"
           inkscape:connector-curvature="0" /><path
           id="path4168"
           d="m 1739.2816,1578.9798 -2.5222,11.2713 c -0.076,0.3415 0.1399,0.7486 0.5303,0.8359 l 5.8063,1.2994 c 0.3904,0.087 0.7596,-0.1887 0.836,-0.5303 l 3.9745,-17.7607 c 0.087,-0.3904 -0.1399,-0.7486 -0.5303,-0.836 l -32.7403,-7.3265 c -0.3903,-0.087 -0.7486,0.1399 -0.8359,0.5303 l -3.9745,17.7607 c -0.076,0.3415 0.1399,0.7486 0.5303,0.836 l 5.8064,1.2993 c 0.3903,0.087 0.7595,-0.1887 0.8359,-0.5302 l 2.5223,-11.2713 6.2943,1.4085 -1.9326,8.6364 c -0.087,0.3904 0.1399,0.7487 0.5302,0.836 l 5.8064,1.2993 c 0.3904,0.087 0.7486,-0.1399 0.836,-0.5302 l 1.9326,-8.6364 6.2943,1.4085 z"
           inkscape:connector-curvature="0" /></g></g></g></svg>