<?xml version="1.0" encoding="utf-8"?>
<!-- Generator: Adobe Illustrator 17.0.0, SVG Export Plug-In . SVG Version: 6.00 Build 0)  -->
<!DOCTYPE svg PUBLIC "-//W3C//DTD SVG 1.1//EN" "http://www.w3.org/Graphics/SVG/1.1/DTD/svg11.dtd">
<svg version="1.1" id="Layer_1" xmlns="http://www.w3.org/2000/svg" xmlns:xlink="http://www.w3.org/1999/xlink" x="0px" y="0px"
	 width="704px" height="209px" viewBox="0 0 704 209" style="enable-background:new 0 0 704 209;" xml:space="preserve">
<style type="text/css">
	.st0{fill:#62676C;}
	.st1{fill:#50555B;}
	.st2{fill:#393D42;}
	.st3{fill:none;stroke:#989CA3;stroke-width:3;stroke-linecap:round;stroke-linejoin:round;stroke-miterlimit:10;}
	.st4{fill:#FFF7E4;}
	.st5{fill:#FFFFFF;}
	.st6{fill:#E9EFD7;}
	.st7{fill:#E8ECD5;}
</style>
<g>
	<g>
		<g>
			<path class="st0" d="M652.1,183.5c-58.5-8.9-117.2-15.4-176.2-19.5c1.8-28.1,3.7-56.3,5.5-84.4c61.5,4.2,122.7,11,183.7,20.3
				c-11.8,13.3-23.5,26.7-35.1,40.3C637.6,154.6,644.9,169,652.1,183.5z"/>
			<path class="st5" d="M656.7,186.9c-60.9-9.4-122.1-16.2-183.6-20.4c1.9-29.9,3.8-59.8,5.8-89.6c64.2,4.3,128,11.4,191.6,21.3
				c-12.5,14-24.9,28.2-37.2,42.5C641.2,155.9,649,171.4,656.7,186.9z M478.7,161.6c56.5,4,112.8,10.1,168.8,18.5
				c-6.8-13.5-13.7-26.9-20.7-40.3c10.9-12.8,21.9-25.5,33-38.1C601.5,93,542.9,86.6,484,82.4C482.2,108.8,480.4,135.2,478.7,161.6z
				"/>
		</g>
		<g>
			<path class="st0" d="M26.1,99.9c61-9.3,122.2-16.1,183.7-20.3c1.8,28.1,3.7,56.3,5.5,84.4c-59,4.1-117.7,10.5-176.2,19.5
				c7-16.3,14.1-32.5,21.3-48.7C49.1,123.1,37.7,111.4,26.1,99.9z"/>
			<path class="st5" d="M218.1,166.5c-61.4,4.2-122.5,10.9-183.3,20.3c7.3-17.2,14.8-34.4,22.4-51.4c-12.1-12.5-24.4-24.9-36.8-37.2
				c63.7-9.9,127.6-17,191.9-21.3C214.3,106.7,216.2,136.6,218.1,166.5z M43.4,180.2c56.2-8.4,112.5-14.6,169.2-18.6
				c-1.8-26.4-3.5-52.8-5.3-79.2C148.5,86.5,90,93,31.7,101.7c10.7,10.8,21.4,21.7,31.9,32.6C56.7,149.5,49.9,164.8,43.4,180.2z"/>
		</g>
		<g>
			<path class="st0" d="M585.5,142.1c-156.2-18.1-313.3-18.5-469.6-1.2c-3.7-32-7.3-64-11-96.1c163.8-18.2,328.4-17.8,492.1,1.2
				C593.1,78.1,589.3,110.1,585.5,142.1z"/>
			<path class="st5" d="M587.8,145c-157.8-18.5-316.5-18.9-474.3-1.2c-3.9-33.7-7.8-67.5-11.7-101.2C267.6,23.9,434.3,24.3,600,43.8
				C596,77.5,591.9,111.3,587.8,145z M118.2,138c154.8-16.9,310.3-16.6,464.9,1.2c3.6-30.3,7.1-60.5,10.7-90.8
				c-161.6-18.5-324.2-19-485.9-1.2C111.4,77.4,114.8,107.7,118.2,138z"/>
		</g>
	</g>
	<g>
		<path class="st6" d="M278.3,66c4.5-0.1,6.8-0.2,11.4-0.3c3.5-0.1,6.2,0.7,8.3,2.4c2,1.7,3.1,4,3.2,7c0,1.7-0.4,3.4-1.3,5.3
			c-0.9,1.8-2.5,3.3-5,4.4c4,5.4,5.9,8.1,9.8,13.5c-3.4,0.1-5,0.1-8.4,0.2c-3.6-5-5.5-7.5-9.2-12.5c-0.3,0-0.5,0-0.8,0
			c0.1,5.1,0.2,7.6,0.4,12.7c-2.9,0.1-4.4,0.1-7.3,0.2C279.1,87.9,278.7,76.9,278.3,66z M286,71.6c0.1,3.4,0.1,5.1,0.2,8.5
			c0.6,0,1,0,1.6,0c3.9-0.1,5.8-1.7,5.7-4.7c0-1.2-0.6-2.2-1.6-2.9c-1-0.7-2.4-1-4.2-1C287,71.6,286.7,71.6,286,71.6z"/>
		<path class="st6" d="M334.6,67.9c-1.8,1.9-2.8,2.9-4.6,4.9c-2.4-1.3-4.2-2-5.3-2c-0.8,0-1.5,0.3-2.1,0.9c-0.6,0.6-0.9,1.3-0.9,2.1
			c0,1.6,1.6,3,4.6,4.2c2.2,0.9,4,1.7,5.1,2.4c1.2,0.7,2.1,1.8,2.9,3.1s1.2,2.7,1.2,4.3c0,2.8-1.2,5.3-3.5,7.4
			c-2.3,2.1-5.1,3.2-8.3,3.2c-3.5,0-7-1.5-10.5-4.7c1.9-2.2,2.8-3.3,4.8-5.5c2.2,2.1,4.2,3.2,6.1,3.2c0.9,0,1.7-0.4,2.5-1.2
			s1.2-1.6,1.2-2.4c0-1.7-1.9-3.2-5.7-4.5c-2.2-0.7-3.7-1.4-4.6-2.1c-0.9-0.6-1.7-1.6-2.3-2.8c-0.6-1.2-1-2.5-1-3.8
			c0-2.9,0.9-5.3,2.9-7.1c2-1.8,4.6-2.8,7.8-2.8C328.8,64.5,332,65.6,334.6,67.9z"/>
		<path class="st6" d="M343.4,64.9c3,0,4.5,0,7.5,0c3.5,8.7,5.2,13.1,8.6,21.9c3.5-8.7,5.3-13.1,8.9-21.7c3,0,4.5,0.1,7.5,0.1
			c-4.5,10.9-9,21.8-13.3,32.7c-2.5,0-3.8,0-6.4,0C352,86.8,347.7,75.8,343.4,64.9z"/>
		<path class="st6" d="M386,65.3c4.7,0.1,7.1,0.1,11.8,0.3c3.2,0.1,5.7,1,7.6,2.8c1.9,1.8,2.8,4.2,2.7,7c-0.1,1.9-0.6,3.7-1.6,5.3
			c-1,1.7-2.5,2.9-4.4,3.7c-1.9,0.8-3.6,1.2-4.9,1.2c-1.7,0-2.6,0-4.3,0c-0.1,5.1-0.2,7.6-0.3,12.7c-2.9-0.1-4.4-0.1-7.3-0.2
			C385.5,87.2,385.8,76.2,386,65.3z M393.1,71.4c-0.1,3.4-0.1,5-0.2,8.4c1.1,0,1.7,0,2.9,0.1c1.2,0,2.3-0.4,3.2-1.2
			c0.9-0.8,1.4-1.8,1.4-3c0-1.3-0.4-2.4-1.4-3.1c-1-0.8-2.4-1.2-4.2-1.2C394.1,71.3,393.8,71.3,393.1,71.4z"/>
	</g>
</g>
</svg>
